<svg version="1.1" xmlns="http://www.w3.org/2000/svg" id="lz-plot-14_svg" class="lz-locuszoom" viewBox="0 0 1489 650" width="2400" height="1047.6830087306917" xlink="http://www.w3.org/1999/xlink"><style xmlns="http://www.w3.org/1999/xhtml" type="text/css">svg.lz-locuszoom { background-color: rgb(255, 255, 255); border: none; cursor: crosshair; font-family: "Helvetica Neue", Helvetica, Arial, sans-serif; font-size: 10px; }svg.lz-locuszoom rect.lz-clickarea { fill: rgb(0, 0, 0); fill-opacity: 0; cursor: pointer; }svg.lz-locuszoom .lz-mouse_guide rect { fill: rgb(210, 210, 210); fill-opacity: 0.85; }svg.lz-locuszoom .lz-mouse_guide rect.lz-mouse_guide-vertical { width: 1px; height: 100%; }svg.lz-locuszoom .lz-mouse_guide rect.lz-mouse_guide-horizontal { width: 100%; height: 1px; }svg.lz-locuszoom .lz-panel-title { font-size: 18px; font-weight: 600; }svg.lz-locuszoom .lz-panel-background { fill: rgb(255, 255, 255); fill-opacity: 0.01; }svg.lz-locuszoom .lz-axis line, svg.lz-locuszoom .lz-axis path { fill: none; stroke: rgb(24, 24, 24); stroke-opacity: 1; shape-rendering: crispedges; }svg.lz-locuszoom .lz-axis .lz-label { font-size: 12px; font-weight: 600; }svg.lz-locuszoom .tick text:focus { outline: rgb(66, 66, 66) dotted 1px; outline-offset: 2px; }svg.lz-locuszoom .lz-legend-background { fill: rgb(245, 245, 245); fill-opacity: 1; stroke: rgb(24, 24, 24); stroke-opacity: 1; stroke-width: 1px; }svg.lz-locuszoom path.lz-data_layer-arcs-selected { stroke: rgb(24, 24, 24) !important; stroke-opacity: 1 !important; stroke-width: 2px !important; }svg.lz-locuszoom path.lz-data_layer-arcs-highlighted { stroke: rgb(24, 24, 24) !important; stroke-opacity: 0.4 !important; stroke-width: 2px !important; }svg.lz-locuszoom path.lz-data_layer-category_scatter, svg.lz-locuszoom path.lz-data_layer-scatter { stroke: rgb(24, 24, 24); stroke-opacity: 0.4; stroke-width: 1px; cursor: pointer; }svg.lz-locuszoom path.lz-data_layer-category_scatter-highlighted, svg.lz-locuszoom path.lz-data_layer-scatter-highlighted { stroke: rgb(24, 24, 24); stroke-opacity: 0.4; stroke-width: 4px; }svg.lz-locuszoom path.lz-data_layer-category_scatter-selected, svg.lz-locuszoom path.lz-data_layer-scatter-selected { stroke: rgb(24, 24, 24); stroke-opacity: 1; stroke-width: 4px; }svg.lz-locuszoom path.lz-data_layer-category_scatter-faded, svg.lz-locuszoom path.lz-data_layer-scatter-faded { fill-opacity: 0.1; stroke-opacity: 0.1; }svg.lz-locuszoom path.lz-data_layer-category_scatter-hidden, svg.lz-locuszoom path.lz-data_layer-scatter-hidden { display: none; }svg.lz-locuszoom text.lz-data_layer-category_scatter-label, svg.lz-locuszoom text.lz-data_layer-scatter-label { fill: rgb(24, 24, 24); fill-opacity: 1; alignment-baseline: middle; }svg.lz-locuszoom line.lz-data_layer-category_scatter-label, svg.lz-locuszoom line.lz-data_layer-scatter-label { stroke: rgb(24, 24, 24); stroke-opacity: 1; stroke-width: 1px; }svg.lz-locuszoom rect.lz-data_layer-annotation_track { cursor: pointer; }svg.lz-locuszoom path.lz-data_layer-annotation_track-highlighted, svg.lz-locuszoom path.lz-data_layer-annotation_track-selected { stroke-opacity: 1; }svg.lz-locuszoom path.lz-data_layer-line { stroke: rgb(24, 24, 24); stroke-opacity: 1; stroke-width: 1px; cursor: pointer; }svg.lz-locuszoom path.lz-data_layer-line-faded { stroke-opacity: 0.2; }svg.lz-locuszoom path.lz-data_layer-line-hidden { display: none; }svg.lz-locuszoom path.lz-data_layer-line-hitarea { fill: none; stroke: none; cursor: pointer; }svg.lz-locuszoom g.lz-data_layer-genes { cursor: pointer; }svg.lz-locuszoom g.lz-data_layer-genes-faded { opacity: 0.1; }svg.lz-locuszoom g.lz-data_layer-genes-hidden { display: none; }svg.lz-locuszoom text.lz-data_layer-genes.lz-label { font-style: italic; }svg.lz-locuszoom rect.lz-data_layer-genes.lz-data_layer-genes-statusnode { fill: rgb(54, 54, 150); fill-opacity: 0; stroke-width: 0px; }svg.lz-locuszoom rect.lz-data_layer-genes.lz-data_layer-genes-statusnode-highlighted { fill: rgb(54, 54, 150); fill-opacity: 0.1; stroke-width: 0px; }svg.lz-locuszoom rect.lz-data_layer-genes.lz-data_layer-genes-statusnode-selected { fill: rgb(54, 54, 150); fill-opacity: 0.15; stroke: rgb(24, 24, 24); stroke-opacity: 1; stroke-width: 1px; }svg.lz-locuszoom rect.lz-data_layer-genes.lz-boundary, svg.lz-locuszoom rect.lz-data_layer-genes.lz-exon { stroke-opacity: 1; stroke-width: 1px; }svg.lz-locuszoom g.lz-data_layer-intervals-faded { opacity: 0.1; }svg.lz-locuszoom g.lz-data_layer-intervals-hidden { display: none; }svg.lz-locuszoom rect.lz-data_layer-intervals.lz-data_layer-intervals-statusnode { fill: rgb(54, 54, 150); fill-opacity: 0; stroke-width: 0px; }svg.lz-locuszoom rect.lz-data_layer-intervals.lz-data_layer-intervals-statusnode-highlighted { fill: rgb(54, 54, 150); fill-opacity: 0.2; stroke-width: 0px; }svg.lz-locuszoom rect.lz-data_layer-intervals.lz-data_layer-intervals-statusnode-selected { fill: rgb(54, 54, 150); fill-opacity: 0.35; stroke: rgb(24, 24, 24); stroke-opacity: 1; stroke-width: 1px; }svg.lz-locuszoom g.lz-data_layer-intervals { stroke-width: 0px; }svg.lz-locuszoom rect.lz-data_layer-intervals-highlighted, svg.lz-locuszoom rect.lz-data_layer-intervals-selected { stroke: rgb(24, 24, 24); stroke-opacity: 1; stroke-width: 1px; }svg.lz-locuszoom path.lz-data_layer-forest { stroke: rgb(24, 24, 24); stroke-opacity: 0.4; stroke-width: 1px; cursor: pointer; }svg.lz-locuszoom path.lz-data_layer-forest-highlighted { stroke: rgb(24, 24, 24); stroke-opacity: 0.4; stroke-width: 4px; }svg.lz-locuszoom path.lz-data_layer-forest-selected { stroke: rgb(24, 24, 24); stroke-opacity: 1; stroke-width: 4px; }svg.lz-locuszoom path.lz-data_layer-forest-faded { fill-opacity: 0.1; stroke-opacity: 0.1; }svg.lz-locuszoom path.lz-data_layer-forest-hidden { display: none; }svg.lz-locuszoom rect.lz-data_layer-forest.lz-data_layer-ci { stroke: rgb(24, 24, 24); stroke-opacity: 1; stroke-width: 1px; }</style><g id="lz-plot-14.phewas.panel_container" transform="translate(0, 0)"><clipPath id="lz-plot-14.phewas.clip"><rect width="1489" height="500"/></clipPath><g id="lz-plot-14.phewas.panel" clip-path="url(#lz-plot-14.phewas.clip)"><rect class="lz-panel-background" x="50" y="35" width="1389" height="295" style="stroke-width: 1; stroke: rgb(210, 210, 210);"/><text class="lz-panel-title" display="none"/><g id="lz-plot-14.phewas.x_axis" class="lz-x lz-axis" transform="translate(50, 330)" fill="none" font-size="10" font-family="sans-serif" text-anchor="middle"><text class="lz-x lz-axis lz-label" text-anchor="middle"/><path class="domain" stroke="currentColor" d="M0.5,6V0.5H1389.5V6"/><g class="tick" opacity="1" transform="translate(33.57142857142858,0)"><line stroke="currentColor" y2="6"/><text fill="currentColor" y="9" dy="7.1" transform="rotate(50)" style="font-weight: bold; font-size: 11px; text-anchor: start; fill: rgb(31, 119, 180);">PHTF1</text></g><g class="tick" opacity="1" transform="translate(166.74496644295306,0)"><line stroke="currentColor" y2="6"/><text fill="currentColor" y="9" dy="7.1" transform="rotate(50)" style="font-weight: bold; font-size: 11px; text-anchor: start; fill: rgb(174, 199, 232);">AL137856.1</text></g><g class="tick" opacity="1" transform="translate(291.0402684563759,0)"><line stroke="currentColor" y2="6"/><text fill="currentColor" y="9" dy="7.1" transform="rotate(50)" style="font-weight: bold; font-size: 11px; text-anchor: start; fill: rgb(255, 127, 14);">RSBN1</text></g><g class="tick" opacity="1" transform="translate(424.2138063279004,0)"><line stroke="currentColor" y2="6"/><text fill="currentColor" y="9" dy="7.1" transform="rotate(50)" style="font-weight: bold; font-size: 11px; text-anchor: start; fill: rgb(255, 187, 120);">AP4B1-AS1</text></g><g class="tick" opacity="1" transform="translate(557.3873441994248,0)"><line stroke="currentColor" y2="6"/><text fill="currentColor" y="9" dy="7.1" transform="rotate(50)" style="font-weight: bold; font-size: 11px; text-anchor: start; fill: rgb(44, 160, 44);">PTPN22</text></g><g class="tick" opacity="1" transform="translate(690.5608820709492,0)"><line stroke="currentColor" y2="6"/><text fill="currentColor" y="9" dy="7.1" transform="rotate(50)" style="font-weight: bold; font-size: 11px; text-anchor: start; fill: rgb(152, 223, 138);">BCL2L15</text></g><g class="tick" opacity="1" transform="translate(823.7344199424736,0)"><line stroke="currentColor" y2="6"/><text fill="currentColor" y="9" dy="7.1" transform="rotate(50)" style="font-weight: bold; font-size: 11px; text-anchor: start; fill: rgb(214, 39, 40);">DCLRE1B</text></g><g class="tick" opacity="1" transform="translate(956.907957813998,0)"><line stroke="currentColor" y2="6"/><text fill="currentColor" y="9" dy="7.1" transform="rotate(50)" style="font-weight: bold; font-size: 11px; text-anchor: start; fill: rgb(255, 152, 150);">AP4B1</text></g><g class="tick" opacity="1" transform="translate(1090.0814956855227,0)"><line stroke="currentColor" y2="6"/><text fill="currentColor" y="9" dy="7.1" transform="rotate(50)" style="font-weight: bold; font-size: 11px; text-anchor: start; fill: rgb(148, 103, 189);">HIPK1</text></g><g class="tick" opacity="1" transform="translate(1223.255033557047,0)"><line stroke="currentColor" y2="6"/><text fill="currentColor" y="9" dy="7.1" transform="rotate(50)" style="font-weight: bold; font-size: 11px; text-anchor: start; fill: rgb(197, 176, 213);">HIPK1-AS1</text></g><g class="tick" opacity="1" transform="translate(1347.5503355704698,0)"><line stroke="currentColor" y2="6"/><text fill="currentColor" y="9" dy="7.1" transform="rotate(50)" style="font-weight: bold; font-size: 11px; text-anchor: start; fill: rgb(140, 86, 75);">OLFML3</text></g></g><g id="lz-plot-14.phewas.y1_axis" class="lz-y lz-y1 lz-axis" transform="translate(50, 35)" fill="none" font-size="10" font-family="sans-serif" text-anchor="end"><text class="lz-y1 lz-axis lz-label" text-anchor="middle" x="-38" y="147.5" fill="currentColor" transform="rotate(-90 -38, 147.5)">-log10 p-value</text><path class="domain" stroke="currentColor" d="M-6,295.5H0.5V0.5H-6"/><g class="tick" opacity="1" transform="translate(0,295.5)"><line stroke="currentColor" x2="-6"/><text fill="currentColor" x="-9" dy="3.2">0</text></g><g class="tick" opacity="1" transform="translate(0,221.75)"><line stroke="currentColor" x2="-6"/><text fill="currentColor" x="-9" dy="3.2">2</text></g><g class="tick" opacity="1" transform="translate(0,148)"><line stroke="currentColor" x2="-6"/><text fill="currentColor" x="-9" dy="3.2">4</text></g><g class="tick" opacity="1" transform="translate(0,74.25)"><line stroke="currentColor" x2="-6"/><text fill="currentColor" x="-9" dy="3.2">6</text></g><g class="tick" opacity="1" transform="translate(0,0.5)"><line stroke="currentColor" x2="-6"/><text fill="currentColor" x="-9" dy="3.2">8</text></g></g><g id="lz-plot-14.phewas.y2_axis" class="lz-y lz-y2 lz-axis"/><g class="lz-data_layer-container" id="lz-plot-14.phewas.phewaspvalues.data_layer_container" transform="translate(50, 35)"><clipPath id="lz-plot-14.phewas.phewaspvalues.clip"><rect width="1389" height="295"/></clipPath><g id="lz-plot-14.phewas.phewaspvalues.data_layer" clip-path="url(#lz-plot-14.phewas.phewaspvalues.clip)"><path class="lz-data_layer-category_scatter" id="lz-plot-14_phewas_phewaspvalues-1506" transform="translate(33.07142857142858, 273.0011426877718)" fill="#EAE6E6" fill-opacity="0.7" d="M4.720348719413148,0A4.720348719413148,4.720348719413148,0,1,1,-4.720348719413148,0A4.720348719413148,4.720348719413148,0,1,1,4.720348719413148,0"/><path class="lz-data_layer-category_scatter" id="lz-plot-14_phewas_phewaspvalues-1527" transform="translate(41.9496644295302, 237.50039698778588)" fill="#EAE6E6" fill-opacity="0.7" d="M0,-7.340710123984264L6.357241449187989,3.670355061992132L-6.357241449187989,3.670355061992132Z"/><path class="lz-data_layer-category_scatter" id="lz-plot-14_phewas_phewaspvalues-1548" transform="translate(50.82790028763183, 238.7555228053918)" fill="#EAE6E6" fill-opacity="0.7" d="M0,-7.340710123984264L6.357241449187989,3.670355061992132L-6.357241449187989,3.670355061992132Z"/><path class="lz-data_layer-category_scatter" id="lz-plot-14_phewas_phewaspvalues-1570" transform="translate(59.70613614573347, 230.21678596513146)" fill="#EAE6E6" fill-opacity="0.7" d="M0,-7.340710123984264L6.357241449187989,3.670355061992132L-6.357241449187989,3.670355061992132Z"/><path class="lz-data_layer-category_scatter" id="lz-plot-14_phewas_phewaspvalues-1592" transform="translate(68.5843720038351, 254.9747699028504)" fill="#EAE6E6" fill-opacity="0.7" d="M4.720348719413148,0A4.720348719413148,4.720348719413148,0,1,1,-4.720348719413148,0A4.720348719413148,4.720348719413148,0,1,1,4.720348719413148,0"/><path class="lz-data_layer-category_scatter" id="lz-plot-14_phewas_phewaspvalues-1613" transform="translate(77.46260786193672, 292.175947517514)" fill="#ED180A" fill-opacity="0.7" d="M4.720348719413148,0A4.720348719413148,4.720348719413148,0,1,1,-4.720348719413148,0A4.720348719413148,4.720348719413148,0,1,1,4.720348719413148,0"/><path class="lz-data_layer-category_scatter" id="lz-plot-14_phewas_phewaspvalues-1634" transform="translate(86.34084372003835, 211.14588103443182)" fill="#EAE6E6" fill-opacity="0.7" d="M0,-7.340710123984264L6.357241449187989,3.670355061992132L-6.357241449187989,3.670355061992132Z"/><path class="lz-data_layer-category_scatter" id="lz-plot-14_phewas_phewaspvalues-1657" transform="translate(95.21907957814, 237.20717160556742)" fill="#EAE6E6" fill-opacity="0.7" d="M0,-7.340710123984264L6.357241449187989,3.670355061992132L-6.357241449187989,3.670355061992132Z"/><path class="lz-data_layer-category_scatter" id="lz-plot-14_phewas_phewaspvalues-1679" transform="translate(104.09731543624162, 262.04392423118986)" fill="#EAE6E6" fill-opacity="0.7" d="M4.720348719413148,0A4.720348719413148,4.720348719413148,0,1,1,-4.720348719413148,0A4.720348719413148,4.720348719413148,0,1,1,4.720348719413148,0"/><path class="lz-data_layer-category_scatter" id="lz-plot-14_phewas_phewaspvalues-1701" transform="translate(112.97555129434325, 267.86001444599106)" fill="#EAE6E6" fill-opacity="0.7" d="M4.720348719413148,0A4.720348719413148,4.720348719413148,0,1,1,-4.720348719413148,0A4.720348719413148,4.720348719413148,0,1,1,4.720348719413148,0"/><path class="lz-data_layer-category_scatter" id="lz-plot-14_phewas_phewaspvalues-1723" transform="translate(121.85378715244488, 240.00228167365344)" fill="#EAE6E6" fill-opacity="0.7" d="M0,-7.340710123984264L6.357241449187989,3.670355061992132L-6.357241449187989,3.670355061992132Z"/><path class="lz-data_layer-category_scatter" id="lz-plot-14_phewas_phewaspvalues-1745" transform="translate(130.7320230105465, 258.87459976173375)" fill="#EAE6E6" fill-opacity="0.7" d="M4.720348719413148,0A4.720348719413148,4.720348719413148,0,1,1,-4.720348719413148,0A4.720348719413148,4.720348719413148,0,1,1,4.720348719413148,0"/><path class="lz-data_layer-category_scatter" id="lz-plot-14_phewas_phewaspvalues-1766" transform="translate(139.61025886864815, 269.38863674793134)" fill="#EAE6E6" fill-opacity="0.7" d="M4.720348719413148,0A4.720348719413148,4.720348719413148,0,1,1,-4.720348719413148,0A4.720348719413148,4.720348719413148,0,1,1,4.720348719413148,0"/><path class="lz-data_layer-category_scatter" id="lz-plot-14_phewas_phewaspvalues-1788" transform="translate(148.4884947267498, 280.7409228286701)" fill="#EAE6E6" fill-opacity="0.7" d="M4.720348719413148,0A4.720348719413148,4.720348719413148,0,1,1,-4.720348719413148,0A4.720348719413148,4.720348719413148,0,1,1,4.720348719413148,0"/><path class="lz-data_layer-category_scatter" id="lz-plot-14_phewas_phewaspvalues-1805" transform="translate(157.3667305848514, 293.22603298164086)" fill="#EAE6E6" fill-opacity="0.7" d="M4.720348719413148,0A4.720348719413148,4.720348719413148,0,1,1,-4.720348719413148,0A4.720348719413148,4.720348719413148,0,1,1,4.720348719413148,0"/><path class="lz-data_layer-category_scatter" id="lz-plot-14_phewas_phewaspvalues-1519" transform="translate(166.24496644295306, 282.6335341934083)" fill="#EAE6E6" fill-opacity="0.7" d="M4.720348719413148,0A4.720348719413148,4.720348719413148,0,1,1,-4.720348719413148,0A4.720348719413148,4.720348719413148,0,1,1,4.720348719413148,0"/><path class="lz-data_layer-category_scatter" id="lz-plot-14_phewas_phewaspvalues-1540" transform="translate(175.12320230105468, 246.7353259804355)" fill="#EAE6E6" fill-opacity="0.7" d="M0,-7.340710123984264L6.357241449187989,3.670355061992132L-6.357241449187989,3.670355061992132Z"/><path class="lz-data_layer-category_scatter" id="lz-plot-14_phewas_phewaspvalues-1561" transform="translate(184.00143815915632, 264.79219114961717)" fill="#EAE6E6" fill-opacity="0.7" d="M4.720348719413148,0A4.720348719413148,4.720348719413148,0,1,1,-4.720348719413148,0A4.720348719413148,4.720348719413148,0,1,1,4.720348719413148,0"/><path class="lz-data_layer-category_scatter" id="lz-plot-14_phewas_phewaspvalues-1583" transform="translate(192.87967401725794, 266.1185904715951)" fill="#EAE6E6" fill-opacity="0.7" d="M4.720348719413148,0A4.720348719413148,4.720348719413148,0,1,1,-4.720348719413148,0A4.720348719413148,4.720348719413148,0,1,1,4.720348719413148,0"/><path class="lz-data_layer-category_scatter" id="lz-plot-14_phewas_phewaspvalues-1605" transform="translate(201.7579098753596, 231.04341894495812)" fill="#EAE6E6" fill-opacity="0.7" d="M0,-7.340710123984264L6.357241449187989,3.670355061992132L-6.357241449187989,3.670355061992132Z"/><path class="lz-data_layer-category_scatter" id="lz-plot-14_phewas_phewaspvalues-1626" transform="translate(210.63614573346118, 283.51333574537506)" fill="#ED180A" fill-opacity="0.7" d="M4.720348719413148,0A4.720348719413148,4.720348719413148,0,1,1,-4.720348719413148,0A4.720348719413148,4.720348719413148,0,1,1,4.720348719413148,0"/><path class="lz-data_layer-category_scatter" id="lz-plot-14_phewas_phewaspvalues-1647" transform="translate(219.51438159156282, 258.6771631949531)" fill="#EAE6E6" fill-opacity="0.7" d="M4.720348719413148,0A4.720348719413148,4.720348719413148,0,1,1,-4.720348719413148,0A4.720348719413148,4.720348719413148,0,1,1,4.720348719413148,0"/><path class="lz-data_layer-category_scatter" id="lz-plot-14_phewas_phewaspvalues-1670" transform="translate(228.39261744966444, 287.084037666022)" fill="#EAE6E6" fill-opacity="0.7" d="M4.720348719413148,0A4.720348719413148,4.720348719413148,0,1,1,-4.720348719413148,0A4.720348719413148,4.720348719413148,0,1,1,4.720348719413148,0"/><path class="lz-data_layer-category_scatter" id="lz-plot-14_phewas_phewaspvalues-1692" transform="translate(237.2708533077661, 273.1891047949799)" fill="#EAE6E6" fill-opacity="0.7" d="M4.720348719413148,0A4.720348719413148,4.720348719413148,0,1,1,-4.720348719413148,0A4.720348719413148,4.720348719413148,0,1,1,4.720348719413148,0"/><path class="lz-data_layer-category_scatter" id="lz-plot-14_phewas_phewaspvalues-1714" transform="translate(246.1490891658677, 292.15128571139724)" fill="#EAE6E6" fill-opacity="0.7" d="M4.720348719413148,0A4.720348719413148,4.720348719413148,0,1,1,-4.720348719413148,0A4.720348719413148,4.720348719413148,0,1,1,4.720348719413148,0"/><path class="lz-data_layer-category_scatter" id="lz-plot-14_phewas_phewaspvalues-1736" transform="translate(255.02732502396935, 266.2704979891933)" fill="#EAE6E6" fill-opacity="0.7" d="M4.720348719413148,0A4.720348719413148,4.720348719413148,0,1,1,-4.720348719413148,0A4.720348719413148,4.720348719413148,0,1,1,4.720348719413148,0"/><path class="lz-data_layer-category_scatter" id="lz-plot-14_phewas_phewaspvalues-1757" transform="translate(263.905560882071, 276.0452382757105)" fill="#EAE6E6" fill-opacity="0.7" d="M4.720348719413148,0A4.720348719413148,4.720348719413148,0,1,1,-4.720348719413148,0A4.720348719413148,4.720348719413148,0,1,1,4.720348719413148,0"/><path class="lz-data_layer-category_scatter" id="lz-plot-14_phewas_phewaspvalues-1779" transform="translate(272.7837967401726, 294.96635000763206)" fill="#EAE6E6" fill-opacity="0.7" d="M4.720348719413148,0A4.720348719413148,4.720348719413148,0,1,1,-4.720348719413148,0A4.720348719413148,4.720348719413148,0,1,1,4.720348719413148,0"/><path class="lz-data_layer-category_scatter" id="lz-plot-14_phewas_phewaspvalues-1817" transform="translate(281.66203259827427, 250.2860635502228)" fill="#EAE6E6" fill-opacity="0.7" d="M4.720348719413148,0A4.720348719413148,4.720348719413148,0,1,1,-4.720348719413148,0A4.720348719413148,4.720348719413148,0,1,1,4.720348719413148,0"/><path class="lz-data_layer-category_scatter" id="lz-plot-14_phewas_phewaspvalues-1503" transform="translate(290.5402684563759, 242.6719867714213)" fill="#EAE6E6" fill-opacity="0.7" d="M0,-7.340710123984264L6.357241449187989,3.670355061992132L-6.357241449187989,3.670355061992132Z"/><path class="lz-data_layer-category_scatter" id="lz-plot-14_phewas_phewaspvalues-1524" transform="translate(299.4185043144775, 252.61778320949318)" fill="#EAE6E6" fill-opacity="0.7" d="M4.720348719413148,0A4.720348719413148,4.720348719413148,0,1,1,-4.720348719413148,0A4.720348719413148,4.720348719413148,0,1,1,4.720348719413148,0"/><path class="lz-data_layer-category_scatter" id="lz-plot-14_phewas_phewaspvalues-1545" transform="translate(308.2967401725791, 280.5058332686913)" fill="#EAE6E6" fill-opacity="0.7" d="M4.720348719413148,0A4.720348719413148,4.720348719413148,0,1,1,-4.720348719413148,0A4.720348719413148,4.720348719413148,0,1,1,4.720348719413148,0"/><path class="lz-data_layer-category_scatter" id="lz-plot-14_phewas_phewaspvalues-1567" transform="translate(317.1749760306808, 290.5930701026837)" fill="#EAE6E6" fill-opacity="0.7" d="M4.720348719413148,0A4.720348719413148,4.720348719413148,0,1,1,-4.720348719413148,0A4.720348719413148,4.720348719413148,0,1,1,4.720348719413148,0"/><path class="lz-data_layer-category_scatter" id="lz-plot-14_phewas_phewaspvalues-1588" transform="translate(326.05321188878236, 287.8702179778296)" fill="#EAE6E6" fill-opacity="0.7" d="M4.720348719413148,0A4.720348719413148,4.720348719413148,0,1,1,-4.720348719413148,0A4.720348719413148,4.720348719413148,0,1,1,4.720348719413148,0"/><path class="lz-data_layer-category_scatter" id="lz-plot-14_phewas_phewaspvalues-1610" transform="translate(334.93144774688403, 291.73585982779844)" fill="#ED180A" fill-opacity="0.7" d="M4.720348719413148,0A4.720348719413148,4.720348719413148,0,1,1,-4.720348719413148,0A4.720348719413148,4.720348719413148,0,1,1,4.720348719413148,0"/><path class="lz-data_layer-category_scatter" id="lz-plot-14_phewas_phewaspvalues-1631" transform="translate(343.80968360498565, 290.65797244101867)" fill="#EAE6E6" fill-opacity="0.7" d="M4.720348719413148,0A4.720348719413148,4.720348719413148,0,1,1,-4.720348719413148,0A4.720348719413148,4.720348719413148,0,1,1,4.720348719413148,0"/><path class="lz-data_layer-category_scatter" id="lz-plot-14_phewas_phewaspvalues-1653" transform="translate(352.68791946308727, 281.8980030449533)" fill="#EAE6E6" fill-opacity="0.7" d="M4.720348719413148,0A4.720348719413148,4.720348719413148,0,1,1,-4.720348719413148,0A4.720348719413148,4.720348719413148,0,1,1,4.720348719413148,0"/><path class="lz-data_layer-category_scatter" id="lz-plot-14_phewas_phewaspvalues-1676" transform="translate(361.56615532118894, 276.9747095545331)" fill="#EAE6E6" fill-opacity="0.7" d="M4.720348719413148,0A4.720348719413148,4.720348719413148,0,1,1,-4.720348719413148,0A4.720348719413148,4.720348719413148,0,1,1,4.720348719413148,0"/><path class="lz-data_layer-category_scatter" id="lz-plot-14_phewas_phewaspvalues-1698" transform="translate(370.44439117929056, 257.92610163874576)" fill="#EAE6E6" fill-opacity="0.7" d="M4.720348719413148,0A4.720348719413148,4.720348719413148,0,1,1,-4.720348719413148,0A4.720348719413148,4.720348719413148,0,1,1,4.720348719413148,0"/><path class="lz-data_layer-category_scatter" id="lz-plot-14_phewas_phewaspvalues-1720" transform="translate(379.3226270373922, 292.0508708042352)" fill="#EAE6E6" fill-opacity="0.7" d="M4.720348719413148,0A4.720348719413148,4.720348719413148,0,1,1,-4.720348719413148,0A4.720348719413148,4.720348719413148,0,1,1,4.720348719413148,0"/><path class="lz-data_layer-category_scatter" id="lz-plot-14_phewas_phewaspvalues-1742" transform="translate(388.20086289549386, 279.22289845462905)" fill="#EAE6E6" fill-opacity="0.7" d="M4.720348719413148,0A4.720348719413148,4.720348719413148,0,1,1,-4.720348719413148,0A4.720348719413148,4.720348719413148,0,1,1,4.720348719413148,0"/><path class="lz-data_layer-category_scatter" id="lz-plot-14_phewas_phewaspvalues-1763" transform="translate(397.0790987535955, 290.76243234215343)" fill="#EAE6E6" fill-opacity="0.7" d="M4.720348719413148,0A4.720348719413148,4.720348719413148,0,1,1,-4.720348719413148,0A4.720348719413148,4.720348719413148,0,1,1,4.720348719413148,0"/><path class="lz-data_layer-category_scatter" id="lz-plot-14_phewas_phewaspvalues-1785" transform="translate(405.9573346116971, 266.890540867143)" fill="#EAE6E6" fill-opacity="0.7" d="M4.720348719413148,0A4.720348719413148,4.720348719413148,0,1,1,-4.720348719413148,0A4.720348719413148,4.720348719413148,0,1,1,4.720348719413148,0"/><path class="lz-data_layer-category_scatter" id="lz-plot-14_phewas_phewaspvalues-1802" transform="translate(414.83557046979865, 280.89610131560653)" fill="#EAE6E6" fill-opacity="0.7" d="M4.720348719413148,0A4.720348719413148,4.720348719413148,0,1,1,-4.720348719413148,0A4.720348719413148,4.720348719413148,0,1,1,4.720348719413148,0"/><path class="lz-data_layer-category_scatter" id="lz-plot-14_phewas_phewaspvalues-1517" transform="translate(423.7138063279004, 227.52255652079032)" fill="#EAE6E6" fill-opacity="0.7" d="M0,7.340710123984264L6.357241449187989,-3.670355061992132L-6.357241449187989,-3.670355061992132Z"/><path class="lz-data_layer-category_scatter" id="lz-plot-14_phewas_phewaspvalues-1538" transform="translate(432.59204218600195, 237.766896382514)" fill="#EAE6E6" fill-opacity="0.7" d="M0,-7.340710123984264L6.357241449187989,3.670355061992132L-6.357241449187989,3.670355061992132Z"/><path class="lz-data_layer-category_scatter" id="lz-plot-14_phewas_phewaspvalues-1559" transform="translate(441.47027804410357, 291.8921566291992)" fill="#EAE6E6" fill-opacity="0.7" d="M4.720348719413148,0A4.720348719413148,4.720348719413148,0,1,1,-4.720348719413148,0A4.720348719413148,4.720348719413148,0,1,1,4.720348719413148,0"/><path class="lz-data_layer-category_scatter" id="lz-plot-14_phewas_phewaspvalues-1581" transform="translate(450.3485139022052, 212.53035520543256)" fill="#EAE6E6" fill-opacity="0.7" d="M0,-7.340710123984264L6.357241449187989,3.670355061992132L-6.357241449187989,3.670355061992132Z"/><path class="lz-data_layer-category_scatter" id="lz-plot-14_phewas_phewaspvalues-1603" transform="translate(459.22674976030686, 287.69794880051717)" fill="#EAE6E6" fill-opacity="0.7" d="M4.720348719413148,0A4.720348719413148,4.720348719413148,0,1,1,-4.720348719413148,0A4.720348719413148,4.720348719413148,0,1,1,4.720348719413148,0"/><path class="lz-data_layer-category_scatter" id="lz-plot-14_phewas_phewaspvalues-1624" transform="translate(468.1049856184085, 230.2163285342613)" fill="#ED180A" fill-opacity="0.7" d="M0,7.340710123984264L6.357241449187989,-3.670355061992132L-6.357241449187989,-3.670355061992132Z"/><path class="lz-data_layer-category_scatter" id="lz-plot-14_phewas_phewaspvalues-1645" transform="translate(476.9832214765101, 260.926263030953)" fill="#EAE6E6" fill-opacity="0.7" d="M4.720348719413148,0A4.720348719413148,4.720348719413148,0,1,1,-4.720348719413148,0A4.720348719413148,4.720348719413148,0,1,1,4.720348719413148,0"/><path class="lz-data_layer-category_scatter" id="lz-plot-14_phewas_phewaspvalues-1668" transform="translate(485.8614573346117, 272.443307076889)" fill="#EAE6E6" fill-opacity="0.7" d="M4.720348719413148,0A4.720348719413148,4.720348719413148,0,1,1,-4.720348719413148,0A4.720348719413148,4.720348719413148,0,1,1,4.720348719413148,0"/><path class="lz-data_layer-category_scatter" id="lz-plot-14_phewas_phewaspvalues-1690" transform="translate(494.7396931927134, 268.1770534501479)" fill="#EAE6E6" fill-opacity="0.7" d="M4.720348719413148,0A4.720348719413148,4.720348719413148,0,1,1,-4.720348719413148,0A4.720348719413148,4.720348719413148,0,1,1,4.720348719413148,0"/><path class="lz-data_layer-category_scatter" id="lz-plot-14_phewas_phewaspvalues-1712" transform="translate(503.617929050815, 273.33937615197516)" fill="#EAE6E6" fill-opacity="0.7" d="M4.720348719413148,0A4.720348719413148,4.720348719413148,0,1,1,-4.720348719413148,0A4.720348719413148,4.720348719413148,0,1,1,4.720348719413148,0"/><path class="lz-data_layer-category_scatter" id="lz-plot-14_phewas_phewaspvalues-1734" transform="translate(512.4961649089166, 273.27887721123415)" fill="#EAE6E6" fill-opacity="0.7" d="M4.720348719413148,0A4.720348719413148,4.720348719413148,0,1,1,-4.720348719413148,0A4.720348719413148,4.720348719413148,0,1,1,4.720348719413148,0"/><path class="lz-data_layer-category_scatter" id="lz-plot-14_phewas_phewaspvalues-1755" transform="translate(521.3744007670183, 279.36517859457547)" fill="#EAE6E6" fill-opacity="0.7" d="M4.720348719413148,0A4.720348719413148,4.720348719413148,0,1,1,-4.720348719413148,0A4.720348719413148,4.720348719413148,0,1,1,4.720348719413148,0"/><path class="lz-data_layer-category_scatter" id="lz-plot-14_phewas_phewaspvalues-1777" transform="translate(530.2526366251199, 287.7320217514777)" fill="#EAE6E6" fill-opacity="0.7" d="M4.720348719413148,0A4.720348719413148,4.720348719413148,0,1,1,-4.720348719413148,0A4.720348719413148,4.720348719413148,0,1,1,4.720348719413148,0"/><path class="lz-data_layer-category_scatter" id="lz-plot-14_phewas_phewaspvalues-1799" transform="translate(539.1308724832215, 283.6435240491115)" fill="#EAE6E6" fill-opacity="0.7" d="M4.720348719413148,0A4.720348719413148,4.720348719413148,0,1,1,-4.720348719413148,0A4.720348719413148,4.720348719413148,0,1,1,4.720348719413148,0"/><path class="lz-data_layer-category_scatter" id="lz-plot-14_phewas_phewaspvalues-1815" transform="translate(548.0091083413231, 256.5480259181376)" fill="#EAE6E6" fill-opacity="0.7" d="M4.720348719413148,0A4.720348719413148,4.720348719413148,0,1,1,-4.720348719413148,0A4.720348719413148,4.720348719413148,0,1,1,4.720348719413148,0"/><path class="lz-data_layer-category_scatter" id="lz-plot-14_phewas_phewaspvalues-1508" transform="translate(556.8873441994248, 205.7835308474516)" fill="#EAE6E6" fill-opacity="0.7" d="M0,7.340710123984264L6.357241449187989,-3.670355061992132L-6.357241449187989,-3.670355061992132Z"/><path class="lz-data_layer-category_scatter" id="lz-plot-14_phewas_phewaspvalues-1529" transform="translate(565.7655800575264, 254.53562103040312)" fill="#EAE6E6" fill-opacity="0.7" d="M4.720348719413148,0A4.720348719413148,4.720348719413148,0,1,1,-4.720348719413148,0A4.720348719413148,4.720348719413148,0,1,1,4.720348719413148,0"/><path class="lz-data_layer-category_scatter" id="lz-plot-14_phewas_phewaspvalues-1550" transform="translate(574.643815915628, 292.13668102749745)" fill="#EAE6E6" fill-opacity="0.7" d="M4.720348719413148,0A4.720348719413148,4.720348719413148,0,1,1,-4.720348719413148,0A4.720348719413148,4.720348719413148,0,1,1,4.720348719413148,0"/><path class="lz-data_layer-category_scatter" id="lz-plot-14_phewas_phewaspvalues-1572" transform="translate(583.5220517737297, 228.51658410972016)" fill="#EAE6E6" fill-opacity="0.7" d="M0,-7.340710123984264L6.357241449187989,3.670355061992132L-6.357241449187989,3.670355061992132Z"/><path class="lz-data_layer-category_scatter" id="lz-plot-14_phewas_phewaspvalues-1594" transform="translate(592.4002876318312, 284.94060319062964)" fill="#EAE6E6" fill-opacity="0.7" d="M4.720348719413148,0A4.720348719413148,4.720348719413148,0,1,1,-4.720348719413148,0A4.720348719413148,4.720348719413148,0,1,1,4.720348719413148,0"/><path class="lz-data_layer-category_scatter lz-data_layer-category_scatter-selected" id="lz-plot-14_phewas_phewaspvalues-1615" transform="translate(601.2785234899329, 193.5585043614255)" fill="#ED180A" fill-opacity="0.7" d="M0,7.340710123984264L6.357241449187989,-3.670355061992132L-6.357241449187989,-3.670355061992132Z"/><path class="lz-data_layer-category_scatter" id="lz-plot-14_phewas_phewaspvalues-1636" transform="translate(610.1567593480345, 232.18273337276443)" fill="#EAE6E6" fill-opacity="0.7" d="M0,7.340710123984264L6.357241449187989,-3.670355061992132L-6.357241449187989,-3.670355061992132Z"/><path class="lz-data_layer-category_scatter" id="lz-plot-14_phewas_phewaspvalues-1659" transform="translate(619.0349952061362, 243.18215561200495)" fill="#EAE6E6" fill-opacity="0.7" d="M0,7.340710123984264L6.357241449187989,-3.670355061992132L-6.357241449187989,-3.670355061992132Z"/><path class="lz-data_layer-category_scatter" id="lz-plot-14_phewas_phewaspvalues-1681" transform="translate(627.9132310642377, 242.78290279018148)" fill="#EAE6E6" fill-opacity="0.7" d="M0,7.340710123984264L6.357241449187989,-3.670355061992132L-6.357241449187989,-3.670355061992132Z"/><path class="lz-data_layer-category_scatter" id="lz-plot-14_phewas_phewaspvalues-1703" transform="translate(636.7914669223394, 212.9271018371605)" fill="#EAE6E6" fill-opacity="0.7" d="M0,7.340710123984264L6.357241449187989,-3.670355061992132L-6.357241449187989,-3.670355061992132Z"/><path class="lz-data_layer-category_scatter" id="lz-plot-14_phewas_phewaspvalues-1725" transform="translate(645.6697027804411, 256.6367573562411)" fill="#EAE6E6" fill-opacity="0.7" d="M4.720348719413148,0A4.720348719413148,4.720348719413148,0,1,1,-4.720348719413148,0A4.720348719413148,4.720348719413148,0,1,1,4.720348719413148,0"/><path class="lz-data_layer-category_scatter" id="lz-plot-14_phewas_phewaspvalues-1747" transform="translate(654.5479386385426, 280.15542261091616)" fill="#EAE6E6" fill-opacity="0.7" d="M4.720348719413148,0A4.720348719413148,4.720348719413148,0,1,1,-4.720348719413148,0A4.720348719413148,4.720348719413148,0,1,1,4.720348719413148,0"/><path class="lz-data_layer-category_scatter" id="lz-plot-14_phewas_phewaspvalues-1768" transform="translate(663.4261744966443, 292.9031674127667)" fill="#EAE6E6" fill-opacity="0.7" d="M4.720348719413148,0A4.720348719413148,4.720348719413148,0,1,1,-4.720348719413148,0A4.720348719413148,4.720348719413148,0,1,1,4.720348719413148,0"/><path class="lz-data_layer-category_scatter" id="lz-plot-14_phewas_phewaspvalues-1790" transform="translate(672.3044103547459, 283.8477722689095)" fill="#EAE6E6" fill-opacity="0.7" d="M4.720348719413148,0A4.720348719413148,4.720348719413148,0,1,1,-4.720348719413148,0A4.720348719413148,4.720348719413148,0,1,1,4.720348719413148,0"/><path class="lz-data_layer-category_scatter" id="lz-plot-14_phewas_phewaspvalues-1807" transform="translate(681.1826462128475, 234.682230285315)" fill="#EAE6E6" fill-opacity="0.7" d="M0,-7.340710123984264L6.357241449187989,3.670355061992132L-6.357241449187989,3.670355061992132Z"/><path class="lz-data_layer-category_scatter" id="lz-plot-14_phewas_phewaspvalues-1513" transform="translate(690.0608820709492, 114.05441912775014)" fill="#EAE6E6" fill-opacity="0.7" d="M0,7.340710123984264L6.357241449187989,-3.670355061992132L-6.357241449187989,-3.670355061992132Z"/><path class="lz-data_layer-category_scatter" id="lz-plot-14_phewas_phewaspvalues-1534" transform="translate(698.9391179290509, 262.62215933076914)" fill="#EAE6E6" fill-opacity="0.7" d="M4.720348719413148,0A4.720348719413148,4.720348719413148,0,1,1,-4.720348719413148,0A4.720348719413148,4.720348719413148,0,1,1,4.720348719413148,0"/><path class="lz-data_layer-category_scatter" id="lz-plot-14_phewas_phewaspvalues-1555" transform="translate(707.8173537871525, 230.52081345881564)" fill="#EAE6E6" fill-opacity="0.7" d="M0,7.340710123984264L6.357241449187989,-3.670355061992132L-6.357241449187989,-3.670355061992132Z"/><path class="lz-data_layer-category_scatter" id="lz-plot-14_phewas_phewaspvalues-1577" transform="translate(716.6955896452541, 168.55623968702878)" fill="#EAE6E6" fill-opacity="0.7" d="M0,7.340710123984264L6.357241449187989,-3.670355061992132L-6.357241449187989,-3.670355061992132Z"/><path class="lz-data_layer-category_scatter" id="lz-plot-14_phewas_phewaspvalues-1599" transform="translate(725.5738255033557, 253.93470682184167)" fill="#EAE6E6" fill-opacity="0.7" d="M4.720348719413148,0A4.720348719413148,4.720348719413148,0,1,1,-4.720348719413148,0A4.720348719413148,4.720348719413148,0,1,1,4.720348719413148,0"/><path class="lz-data_layer-category_scatter" id="lz-plot-14_phewas_phewaspvalues-1620" transform="translate(734.4520613614574, 172.32570223009924)" fill="#ED180A" fill-opacity="0.7" d="M0,7.340710123984264L6.357241449187989,-3.670355061992132L-6.357241449187989,-3.670355061992132Z"/><path class="lz-data_layer-category_scatter" id="lz-plot-14_phewas_phewaspvalues-1641" transform="translate(743.3302972195589, 177.5715887058251)" fill="#EAE6E6" fill-opacity="0.7" d="M0,7.340710123984264L6.357241449187989,-3.670355061992132L-6.357241449187989,-3.670355061992132Z"/><path class="lz-data_layer-category_scatter" id="lz-plot-14_phewas_phewaspvalues-1664" transform="translate(752.2085330776605, 115.82360665321329)" fill="#EAE6E6" fill-opacity="0.7" d="M0,7.340710123984264L6.357241449187989,-3.670355061992132L-6.357241449187989,-3.670355061992132Z"/><path class="lz-data_layer-category_scatter" id="lz-plot-14_phewas_phewaspvalues-1686" transform="translate(761.0867689357623, 136.44870423892291)" fill="#EAE6E6" fill-opacity="0.7" d="M0,7.340710123984264L6.357241449187989,-3.670355061992132L-6.357241449187989,-3.670355061992132Z"/><path class="lz-data_layer-category_scatter" id="lz-plot-14_phewas_phewaspvalues-1708" transform="translate(769.965004793864, 232.3042924725503)" fill="#EAE6E6" fill-opacity="0.7" d="M0,7.340710123984264L6.357241449187989,-3.670355061992132L-6.357241449187989,-3.670355061992132Z"/><path class="lz-data_layer-category_scatter" id="lz-plot-14_phewas_phewaspvalues-1730" transform="translate(778.8432406519655, 175.6269248625324)" fill="#EAE6E6" fill-opacity="0.7" d="M0,7.340710123984264L6.357241449187989,-3.670355061992132L-6.357241449187989,-3.670355061992132Z"/><path class="lz-data_layer-category_scatter" id="lz-plot-14_phewas_phewaspvalues-1751" transform="translate(787.7214765100671, 216.83880984922288)" fill="#EAE6E6" fill-opacity="0.7" d="M0,7.340710123984264L6.357241449187989,-3.670355061992132L-6.357241449187989,-3.670355061992132Z"/><path class="lz-data_layer-category_scatter" id="lz-plot-14_phewas_phewaspvalues-1773" transform="translate(796.5997123681688, 198.53546933436425)" fill="#EAE6E6" fill-opacity="0.7" d="M0,7.340710123984264L6.357241449187989,-3.670355061992132L-6.357241449187989,-3.670355061992132Z"/><path class="lz-data_layer-category_scatter" id="lz-plot-14_phewas_phewaspvalues-1795" transform="translate(805.4779482262703, 175.71484288980673)" fill="#EAE6E6" fill-opacity="0.7" d="M0,7.340710123984264L6.357241449187989,-3.670355061992132L-6.357241449187989,-3.670355061992132Z"/><path class="lz-data_layer-category_scatter" id="lz-plot-14_phewas_phewaspvalues-1811" transform="translate(814.356184084372, 212.72283997967403)" fill="#EAE6E6" fill-opacity="0.7" d="M0,7.340710123984264L6.357241449187989,-3.670355061992132L-6.357241449187989,-3.670355061992132Z"/><path class="lz-data_layer-category_scatter" id="lz-plot-14_phewas_phewaspvalues-1507" transform="translate(823.2344199424736, 278.446802814396)" fill="#EAE6E6" fill-opacity="0.7" d="M4.720348719413148,0A4.720348719413148,4.720348719413148,0,1,1,-4.720348719413148,0A4.720348719413148,4.720348719413148,0,1,1,4.720348719413148,0"/><path class="lz-data_layer-category_scatter" id="lz-plot-14_phewas_phewaspvalues-1528" transform="translate(832.1126558005753, 260.1614360296096)" fill="#EAE6E6" fill-opacity="0.7" d="M4.720348719413148,0A4.720348719413148,4.720348719413148,0,1,1,-4.720348719413148,0A4.720348719413148,4.720348719413148,0,1,1,4.720348719413148,0"/><path class="lz-data_layer-category_scatter" id="lz-plot-14_phewas_phewaspvalues-1549" transform="translate(840.9908916586769, 289.1622868075541)" fill="#EAE6E6" fill-opacity="0.7" d="M4.720348719413148,0A4.720348719413148,4.720348719413148,0,1,1,-4.720348719413148,0A4.720348719413148,4.720348719413148,0,1,1,4.720348719413148,0"/><path class="lz-data_layer-category_scatter" id="lz-plot-14_phewas_phewaspvalues-1571" transform="translate(849.8691275167786, 203.78471407591798)" fill="#EAE6E6" fill-opacity="0.7" d="M0,-7.340710123984264L6.357241449187989,3.670355061992132L-6.357241449187989,3.670355061992132Z"/><path class="lz-data_layer-category_scatter" id="lz-plot-14_phewas_phewaspvalues-1593" transform="translate(858.7473633748801, 274.9328219255232)" fill="#EAE6E6" fill-opacity="0.7" d="M4.720348719413148,0A4.720348719413148,4.720348719413148,0,1,1,-4.720348719413148,0A4.720348719413148,4.720348719413148,0,1,1,4.720348719413148,0"/><path class="lz-data_layer-category_scatter" id="lz-plot-14_phewas_phewaspvalues-1614" transform="translate(867.6255992329818, 231.94814678555875)" fill="#ED180A" fill-opacity="0.7" d="M0,-7.340710123984264L6.357241449187989,3.670355061992132L-6.357241449187989,3.670355061992132Z"/><path class="lz-data_layer-category_scatter" id="lz-plot-14_phewas_phewaspvalues-1635" transform="translate(876.5038350910834, 255.4909223286263)" fill="#EAE6E6" fill-opacity="0.7" d="M4.720348719413148,0A4.720348719413148,4.720348719413148,0,1,1,-4.720348719413148,0A4.720348719413148,4.720348719413148,0,1,1,4.720348719413148,0"/><path class="lz-data_layer-category_scatter" id="lz-plot-14_phewas_phewaspvalues-1658" transform="translate(885.382070949185, 199.5404983252076)" fill="#EAE6E6" fill-opacity="0.7" d="M0,-7.340710123984264L6.357241449187989,3.670355061992132L-6.357241449187989,3.670355061992132Z"/><path class="lz-data_layer-category_scatter" id="lz-plot-14_phewas_phewaspvalues-1680" transform="translate(894.2603068072867, 290.18341562824696)" fill="#EAE6E6" fill-opacity="0.7" d="M4.720348719413148,0A4.720348719413148,4.720348719413148,0,1,1,-4.720348719413148,0A4.720348719413148,4.720348719413148,0,1,1,4.720348719413148,0"/><path class="lz-data_layer-category_scatter" id="lz-plot-14_phewas_phewaspvalues-1702" transform="translate(903.1385426653884, 219.7598065016788)" fill="#EAE6E6" fill-opacity="0.7" d="M0,-7.340710123984264L6.357241449187989,3.670355061992132L-6.357241449187989,3.670355061992132Z"/><path class="lz-data_layer-category_scatter" id="lz-plot-14_phewas_phewaspvalues-1724" transform="translate(912.01677852349, 262.14678382649134)" fill="#EAE6E6" fill-opacity="0.7" d="M4.720348719413148,0A4.720348719413148,4.720348719413148,0,1,1,-4.720348719413148,0A4.720348719413148,4.720348719413148,0,1,1,4.720348719413148,0"/><path class="lz-data_layer-category_scatter" id="lz-plot-14_phewas_phewaspvalues-1746" transform="translate(920.8950143815916, 294.5901590642069)" fill="#EAE6E6" fill-opacity="0.7" d="M4.720348719413148,0A4.720348719413148,4.720348719413148,0,1,1,-4.720348719413148,0A4.720348719413148,4.720348719413148,0,1,1,4.720348719413148,0"/><path class="lz-data_layer-category_scatter" id="lz-plot-14_phewas_phewaspvalues-1767" transform="translate(929.7732502396932, 294.3399947895496)" fill="#EAE6E6" fill-opacity="0.7" d="M4.720348719413148,0A4.720348719413148,4.720348719413148,0,1,1,-4.720348719413148,0A4.720348719413148,4.720348719413148,0,1,1,4.720348719413148,0"/><path class="lz-data_layer-category_scatter" id="lz-plot-14_phewas_phewaspvalues-1789" transform="translate(938.6514860977948, 268.59848487606865)" fill="#EAE6E6" fill-opacity="0.7" d="M4.720348719413148,0A4.720348719413148,4.720348719413148,0,1,1,-4.720348719413148,0A4.720348719413148,4.720348719413148,0,1,1,4.720348719413148,0"/><path class="lz-data_layer-category_scatter" id="lz-plot-14_phewas_phewaspvalues-1806" transform="translate(947.5297219558964, 261.6961223240815)" fill="#EAE6E6" fill-opacity="0.7" d="M4.720348719413148,0A4.720348719413148,4.720348719413148,0,1,1,-4.720348719413148,0A4.720348719413148,4.720348719413148,0,1,1,4.720348719413148,0"/><path class="lz-data_layer-category_scatter" id="lz-plot-14_phewas_phewaspvalues-1509" transform="translate(956.407957813998, 96.79358955494087)" fill="#EAE6E6" fill-opacity="0.7" d="M0,7.340710123984264L6.357241449187989,-3.670355061992132L-6.357241449187989,-3.670355061992132Z"/><path class="lz-data_layer-category_scatter" id="lz-plot-14_phewas_phewaspvalues-1530" transform="translate(965.2861936720998, 286.43149262261767)" fill="#EAE6E6" fill-opacity="0.7" d="M4.720348719413148,0A4.720348719413148,4.720348719413148,0,1,1,-4.720348719413148,0A4.720348719413148,4.720348719413148,0,1,1,4.720348719413148,0"/><path class="lz-data_layer-category_scatter" id="lz-plot-14_phewas_phewaspvalues-1551" transform="translate(974.1644295302013, 290.4484330644134)" fill="#EAE6E6" fill-opacity="0.7" d="M4.720348719413148,0A4.720348719413148,4.720348719413148,0,1,1,-4.720348719413148,0A4.720348719413148,4.720348719413148,0,1,1,4.720348719413148,0"/><path class="lz-data_layer-category_scatter" id="lz-plot-14_phewas_phewaspvalues-1573" transform="translate(983.042665388303, 285.7667101313787)" fill="#EAE6E6" fill-opacity="0.7" d="M4.720348719413148,0A4.720348719413148,4.720348719413148,0,1,1,-4.720348719413148,0A4.720348719413148,4.720348719413148,0,1,1,4.720348719413148,0"/><path class="lz-data_layer-category_scatter" id="lz-plot-14_phewas_phewaspvalues-1595" transform="translate(991.9209012464046, 279.2710359375585)" fill="#EAE6E6" fill-opacity="0.7" d="M4.720348719413148,0A4.720348719413148,4.720348719413148,0,1,1,-4.720348719413148,0A4.720348719413148,4.720348719413148,0,1,1,4.720348719413148,0"/><path class="lz-data_layer-category_scatter" id="lz-plot-14_phewas_phewaspvalues-1616" transform="translate(1000.7991371045063, 201.3334375539186)" fill="#ED180A" fill-opacity="0.7" d="M0,7.340710123984264L6.357241449187989,-3.670355061992132L-6.357241449187989,-3.670355061992132Z"/><path class="lz-data_layer-category_scatter" id="lz-plot-14_phewas_phewaspvalues-1637" transform="translate(1009.6773729626078, 263.11376432193066)" fill="#EAE6E6" fill-opacity="0.7" d="M4.720348719413148,0A4.720348719413148,4.720348719413148,0,1,1,-4.720348719413148,0A4.720348719413148,4.720348719413148,0,1,1,4.720348719413148,0"/><path class="lz-data_layer-category_scatter" id="lz-plot-14_phewas_phewaspvalues-1660" transform="translate(1018.5556088207095, 136.2454240243903)" fill="#EAE6E6" fill-opacity="0.7" d="M0,7.340710123984264L6.357241449187989,-3.670355061992132L-6.357241449187989,-3.670355061992132Z"/><path class="lz-data_layer-category_scatter" id="lz-plot-14_phewas_phewaspvalues-1682" transform="translate(1027.4338446788113, 254.84756127532194)" fill="#EAE6E6" fill-opacity="0.7" d="M4.720348719413148,0A4.720348719413148,4.720348719413148,0,1,1,-4.720348719413148,0A4.720348719413148,4.720348719413148,0,1,1,4.720348719413148,0"/><path class="lz-data_layer-category_scatter" id="lz-plot-14_phewas_phewaspvalues-1704" transform="translate(1036.3120805369128, 247.51076027898816)" fill="#EAE6E6" fill-opacity="0.7" d="M0,7.340710123984264L6.357241449187989,-3.670355061992132L-6.357241449187989,-3.670355061992132Z"/><path class="lz-data_layer-category_scatter" id="lz-plot-14_phewas_phewaspvalues-1726" transform="translate(1045.1903163950144, 224.1595291089108)" fill="#EAE6E6" fill-opacity="0.7" d="M0,7.340710123984264L6.357241449187989,-3.670355061992132L-6.357241449187989,-3.670355061992132Z"/><path class="lz-data_layer-category_scatter" id="lz-plot-14_phewas_phewaspvalues-1748" transform="translate(1054.068552253116, 242.88899270306578)" fill="#EAE6E6" fill-opacity="0.7" d="M0,7.340710123984264L6.357241449187989,-3.670355061992132L-6.357241449187989,-3.670355061992132Z"/><path class="lz-data_layer-category_scatter" id="lz-plot-14_phewas_phewaspvalues-1769" transform="translate(1062.9467881112178, 285.05404087135486)" fill="#EAE6E6" fill-opacity="0.7" d="M4.720348719413148,0A4.720348719413148,4.720348719413148,0,1,1,-4.720348719413148,0A4.720348719413148,4.720348719413148,0,1,1,4.720348719413148,0"/><path class="lz-data_layer-category_scatter" id="lz-plot-14_phewas_phewaspvalues-1791" transform="translate(1071.8250239693193, 292.99690530496474)" fill="#EAE6E6" fill-opacity="0.7" d="M4.720348719413148,0A4.720348719413148,4.720348719413148,0,1,1,-4.720348719413148,0A4.720348719413148,4.720348719413148,0,1,1,4.720348719413148,0"/><path class="lz-data_layer-category_scatter" id="lz-plot-14_phewas_phewaspvalues-1808" transform="translate(1080.7032598274209, 288.5832812002532)" fill="#EAE6E6" fill-opacity="0.7" d="M4.720348719413148,0A4.720348719413148,4.720348719413148,0,1,1,-4.720348719413148,0A4.720348719413148,4.720348719413148,0,1,1,4.720348719413148,0"/><path class="lz-data_layer-category_scatter" id="lz-plot-14_phewas_phewaspvalues-1511" transform="translate(1089.5814956855227, 275.4651511112851)" fill="#EAE6E6" fill-opacity="0.7" d="M4.720348719413148,0A4.720348719413148,4.720348719413148,0,1,1,-4.720348719413148,0A4.720348719413148,4.720348719413148,0,1,1,4.720348719413148,0"/><path class="lz-data_layer-category_scatter" id="lz-plot-14_phewas_phewaspvalues-1532" transform="translate(1098.4597315436242, 262.3664019103896)" fill="#EAE6E6" fill-opacity="0.7" d="M4.720348719413148,0A4.720348719413148,4.720348719413148,0,1,1,-4.720348719413148,0A4.720348719413148,4.720348719413148,0,1,1,4.720348719413148,0"/><path class="lz-data_layer-category_scatter" id="lz-plot-14_phewas_phewaspvalues-1553" transform="translate(1107.3379674017258, 292.70150060723654)" fill="#EAE6E6" fill-opacity="0.7" d="M4.720348719413148,0A4.720348719413148,4.720348719413148,0,1,1,-4.720348719413148,0A4.720348719413148,4.720348719413148,0,1,1,4.720348719413148,0"/><path class="lz-data_layer-category_scatter" id="lz-plot-14_phewas_phewaspvalues-1575" transform="translate(1116.2162032598274, 228.2071987909817)" fill="#EAE6E6" fill-opacity="0.7" d="M0,-7.340710123984264L6.357241449187989,3.670355061992132L-6.357241449187989,3.670355061992132Z"/><path class="lz-data_layer-category_scatter" id="lz-plot-14_phewas_phewaspvalues-1597" transform="translate(1125.0944391179291, 290.3677534730706)" fill="#EAE6E6" fill-opacity="0.7" d="M4.720348719413148,0A4.720348719413148,4.720348719413148,0,1,1,-4.720348719413148,0A4.720348719413148,4.720348719413148,0,1,1,4.720348719413148,0"/><path class="lz-data_layer-category_scatter" id="lz-plot-14_phewas_phewaspvalues-1618" transform="translate(1133.9726749760307, 283.31893679954175)" fill="#ED180A" fill-opacity="0.7" d="M4.720348719413148,0A4.720348719413148,4.720348719413148,0,1,1,-4.720348719413148,0A4.720348719413148,4.720348719413148,0,1,1,4.720348719413148,0"/><path class="lz-data_layer-category_scatter" id="lz-plot-14_phewas_phewaspvalues-1639" transform="translate(1142.8509108341323, 291.41372662683233)" fill="#EAE6E6" fill-opacity="0.7" d="M4.720348719413148,0A4.720348719413148,4.720348719413148,0,1,1,-4.720348719413148,0A4.720348719413148,4.720348719413148,0,1,1,4.720348719413148,0"/><path class="lz-data_layer-category_scatter" id="lz-plot-14_phewas_phewaspvalues-1662" transform="translate(1151.7291466922338, 267.76196381725936)" fill="#EAE6E6" fill-opacity="0.7" d="M4.720348719413148,0A4.720348719413148,4.720348719413148,0,1,1,-4.720348719413148,0A4.720348719413148,4.720348719413148,0,1,1,4.720348719413148,0"/><path class="lz-data_layer-category_scatter" id="lz-plot-14_phewas_phewaspvalues-1684" transform="translate(1160.6073825503356, 276.65386327604455)" fill="#EAE6E6" fill-opacity="0.7" d="M4.720348719413148,0A4.720348719413148,4.720348719413148,0,1,1,-4.720348719413148,0A4.720348719413148,4.720348719413148,0,1,1,4.720348719413148,0"/><path class="lz-data_layer-category_scatter" id="lz-plot-14_phewas_phewaspvalues-1706" transform="translate(1169.4856184084372, 291.5708029484963)" fill="#EAE6E6" fill-opacity="0.7" d="M4.720348719413148,0A4.720348719413148,4.720348719413148,0,1,1,-4.720348719413148,0A4.720348719413148,4.720348719413148,0,1,1,4.720348719413148,0"/><path class="lz-data_layer-category_scatter" id="lz-plot-14_phewas_phewaspvalues-1728" transform="translate(1178.363854266539, 294.55642616675584)" fill="#EAE6E6" fill-opacity="0.7" d="M4.720348719413148,0A4.720348719413148,4.720348719413148,0,1,1,-4.720348719413148,0A4.720348719413148,4.720348719413148,0,1,1,4.720348719413148,0"/><path class="lz-data_layer-category_scatter" id="lz-plot-14_phewas_phewaspvalues-1750" transform="translate(1187.2420901246405, 277.1759465380246)" fill="#EAE6E6" fill-opacity="0.7" d="M4.720348719413148,0A4.720348719413148,4.720348719413148,0,1,1,-4.720348719413148,0A4.720348719413148,4.720348719413148,0,1,1,4.720348719413148,0"/><path class="lz-data_layer-category_scatter" id="lz-plot-14_phewas_phewaspvalues-1771" transform="translate(1196.120325982742, 291.2004514825359)" fill="#EAE6E6" fill-opacity="0.7" d="M4.720348719413148,0A4.720348719413148,4.720348719413148,0,1,1,-4.720348719413148,0A4.720348719413148,4.720348719413148,0,1,1,4.720348719413148,0"/><path class="lz-data_layer-category_scatter" id="lz-plot-14_phewas_phewaspvalues-1793" transform="translate(1204.9985618408436, 269.6999420856175)" fill="#EAE6E6" fill-opacity="0.7" d="M4.720348719413148,0A4.720348719413148,4.720348719413148,0,1,1,-4.720348719413148,0A4.720348719413148,4.720348719413148,0,1,1,4.720348719413148,0"/><path class="lz-data_layer-category_scatter" id="lz-plot-14_phewas_phewaspvalues-1810" transform="translate(1213.8767976989454, 283.5992664037066)" fill="#EAE6E6" fill-opacity="0.7" d="M4.720348719413148,0A4.720348719413148,4.720348719413148,0,1,1,-4.720348719413148,0A4.720348719413148,4.720348719413148,0,1,1,4.720348719413148,0"/><path class="lz-data_layer-category_scatter" id="lz-plot-14_phewas_phewaspvalues-1520" transform="translate(1222.755033557047, 286.91902760023936)" fill="#EAE6E6" fill-opacity="0.7" d="M4.720348719413148,0A4.720348719413148,4.720348719413148,0,1,1,-4.720348719413148,0A4.720348719413148,4.720348719413148,0,1,1,4.720348719413148,0"/><path class="lz-data_layer-category_scatter" id="lz-plot-14_phewas_phewaspvalues-1541" transform="translate(1231.6332694151488, 288.37283589669187)" fill="#EAE6E6" fill-opacity="0.7" d="M4.720348719413148,0A4.720348719413148,4.720348719413148,0,1,1,-4.720348719413148,0A4.720348719413148,4.720348719413148,0,1,1,4.720348719413148,0"/><path class="lz-data_layer-category_scatter" id="lz-plot-14_phewas_phewaspvalues-1563" transform="translate(1240.5115052732504, 286.0744317176108)" fill="#EAE6E6" fill-opacity="0.7" d="M4.720348719413148,0A4.720348719413148,4.720348719413148,0,1,1,-4.720348719413148,0A4.720348719413148,4.720348719413148,0,1,1,4.720348719413148,0"/><path class="lz-data_layer-category_scatter" id="lz-plot-14_phewas_phewaspvalues-1584" transform="translate(1249.389741131352, 289.08768111909063)" fill="#EAE6E6" fill-opacity="0.7" d="M4.720348719413148,0A4.720348719413148,4.720348719413148,0,1,1,-4.720348719413148,0A4.720348719413148,4.720348719413148,0,1,1,4.720348719413148,0"/><path class="lz-data_layer-category_scatter" id="lz-plot-14_phewas_phewaspvalues-1606" transform="translate(1258.2679769894535, 258.12564057154947)" fill="#EAE6E6" fill-opacity="0.7" d="M4.720348719413148,0A4.720348719413148,4.720348719413148,0,1,1,-4.720348719413148,0A4.720348719413148,4.720348719413148,0,1,1,4.720348719413148,0"/><path class="lz-data_layer-category_scatter" id="lz-plot-14_phewas_phewaspvalues-1627" transform="translate(1267.146212847555, 257.44899931366086)" fill="#ED180A" fill-opacity="0.7" d="M4.720348719413148,0A4.720348719413148,4.720348719413148,0,1,1,-4.720348719413148,0A4.720348719413148,4.720348719413148,0,1,1,4.720348719413148,0"/><path class="lz-data_layer-category_scatter" id="lz-plot-14_phewas_phewaspvalues-1649" transform="translate(1276.0244487056568, 278.288584848286)" fill="#EAE6E6" fill-opacity="0.7" d="M4.720348719413148,0A4.720348719413148,4.720348719413148,0,1,1,-4.720348719413148,0A4.720348719413148,4.720348719413148,0,1,1,4.720348719413148,0"/><path class="lz-data_layer-category_scatter" id="lz-plot-14_phewas_phewaspvalues-1672" transform="translate(1284.9026845637584, 277.8012369122998)" fill="#EAE6E6" fill-opacity="0.7" d="M4.720348719413148,0A4.720348719413148,4.720348719413148,0,1,1,-4.720348719413148,0A4.720348719413148,4.720348719413148,0,1,1,4.720348719413148,0"/><path class="lz-data_layer-category_scatter" id="lz-plot-14_phewas_phewaspvalues-1694" transform="translate(1293.7809204218602, 291.40763508277485)" fill="#EAE6E6" fill-opacity="0.7" d="M4.720348719413148,0A4.720348719413148,4.720348719413148,0,1,1,-4.720348719413148,0A4.720348719413148,4.720348719413148,0,1,1,4.720348719413148,0"/><path class="lz-data_layer-category_scatter" id="lz-plot-14_phewas_phewaspvalues-1716" transform="translate(1302.6591562799617, 290.86480552083736)" fill="#EAE6E6" fill-opacity="0.7" d="M4.720348719413148,0A4.720348719413148,4.720348719413148,0,1,1,-4.720348719413148,0A4.720348719413148,4.720348719413148,0,1,1,4.720348719413148,0"/><path class="lz-data_layer-category_scatter" id="lz-plot-14_phewas_phewaspvalues-1738" transform="translate(1311.5373921380633, 284.12646375635836)" fill="#EAE6E6" fill-opacity="0.7" d="M4.720348719413148,0A4.720348719413148,4.720348719413148,0,1,1,-4.720348719413148,0A4.720348719413148,4.720348719413148,0,1,1,4.720348719413148,0"/><path class="lz-data_layer-category_scatter" id="lz-plot-14_phewas_phewaspvalues-1759" transform="translate(1320.4156279961649, 294.6519469725096)" fill="#EAE6E6" fill-opacity="0.7" d="M4.720348719413148,0A4.720348719413148,4.720348719413148,0,1,1,-4.720348719413148,0A4.720348719413148,4.720348719413148,0,1,1,4.720348719413148,0"/><path class="lz-data_layer-category_scatter" id="lz-plot-14_phewas_phewaspvalues-1781" transform="translate(1329.2938638542666, 289.2816517617632)" fill="#EAE6E6" fill-opacity="0.7" d="M4.720348719413148,0A4.720348719413148,4.720348719413148,0,1,1,-4.720348719413148,0A4.720348719413148,4.720348719413148,0,1,1,4.720348719413148,0"/><path class="lz-data_layer-category_scatter" id="lz-plot-14_phewas_phewaspvalues-1818" transform="translate(1338.1720997123682, 294.7555383018943)" fill="#EAE6E6" fill-opacity="0.7" d="M4.720348719413148,0A4.720348719413148,4.720348719413148,0,1,1,-4.720348719413148,0A4.720348719413148,4.720348719413148,0,1,1,4.720348719413148,0"/><path class="lz-data_layer-category_scatter" id="lz-plot-14_phewas_phewaspvalues-1591" transform="translate(1347.0503355704698, 293.66596421315995)" fill="#EAE6E6" fill-opacity="0.7" d="M4.720348719413148,0A4.720348719413148,4.720348719413148,0,1,1,-4.720348719413148,0A4.720348719413148,4.720348719413148,0,1,1,4.720348719413148,0"/><path class="lz-data_layer-category_scatter" id="lz-plot-14_phewas_phewaspvalues-1656" transform="translate(1355.9285714285716, 274.63647140842323)" fill="#EAE6E6" fill-opacity="0.7" d="M4.720348719413148,0A4.720348719413148,4.720348719413148,0,1,1,-4.720348719413148,0A4.720348719413148,4.720348719413148,0,1,1,4.720348719413148,0"/></g></g><g class="lz-data_layer-container" id="lz-plot-14.phewas.significance.data_layer_container" transform="translate(50, 35)"><clipPath id="lz-plot-14.phewas.significance.clip"><rect width="1389" height="295"/></clipPath><g id="lz-plot-14.phewas.significance.data_layer" clip-path="url(#lz-plot-14.phewas.significance.clip)"><path class="lz-data_layer-line" d="M0,25.775624999999994L1389,25.775624999999994" style="stroke: rgb(211, 211, 211); stroke-width: 3px; stroke-dasharray: 10px, 10px;"/></g></g><g id="lz-plot-14.phewas.legend" class="lz-legend" transform="translate(1294.3943328857422, 30)" style="visibility: hidden;"><rect width="134.6056671142578" height="62" class="lz-legend-background"/><g><g transform="translate(5, 5)"><path class="lz-data_layer-scatter" d="M3.5682482323055424,0A3.5682482323055424,3.5682482323055424,0,1,1,-3.5682482323055424,0A3.5682482323055424,3.5682482323055424,0,1,1,3.5682482323055424,0" transform="translate(4, 6.5)" fill="[object Object]"/><text text-anchor="left" class="lz-label" x="13" y="10.5" style="font-size: 12px;">Non-significant effect</text></g><g transform="translate(5, 24)"><path class="lz-data_layer-scatter" d="M0,-5.549055267050423L4.805622828269508,2.7745276335252114L-4.805622828269508,2.7745276335252114Z" transform="translate(4, 6.5)" fill="[object Object]"/><text text-anchor="left" class="lz-label" x="13" y="10.5" style="font-size: 12px;">Positive effect</text></g><g transform="translate(5, 43)"><path class="lz-data_layer-scatter" d="M0,5.549055267050423L4.805622828269508,-2.7745276335252114L-4.805622828269508,-2.7745276335252114Z" transform="translate(4, 6.5)" fill="[object Object]"/><text text-anchor="left" class="lz-label" x="13" y="10.5" style="font-size: 12px;">Negative effect</text></g></g></g></g></g><g id="lz-plot-14.genes.panel_container" transform="translate(0, 500)"><clipPath id="lz-plot-14.genes.clip"><rect width="1489" height="150"/></clipPath><g id="lz-plot-14.genes.panel" clip-path="url(#lz-plot-14.genes.clip)"><rect class="lz-panel-background" x="50" y="20" width="1389" height="110"/><text class="lz-panel-title" display="none"/><g id="lz-plot-14.genes.x_axis" class="lz-x lz-axis" transform="translate(50, 130)" fill="none" font-size="10" font-family="sans-serif" text-anchor="middle"><text class="lz-x lz-axis lz-label" text-anchor="middle" x="694.5" y="32" fill="currentColor">Chromosome 1 (Mb)</text><path class="domain" stroke="currentColor" d="M0.5,6V0.5H1389.5V6"/><g class="tick" opacity="1" transform="translate(330.5854325,0)"><line stroke="currentColor" y2="6"/><text fill="currentColor" y="9" dy="7.1">113.80</text></g><g class="tick" opacity="1" transform="translate(677.8354325,0)"><line stroke="currentColor" y2="6"/><text fill="currentColor" y="9" dy="7.1">113.90</text></g><g class="tick" opacity="1" transform="translate(1025.0854325,0)"><line stroke="currentColor" y2="6"/><text fill="currentColor" y="9" dy="7.1">114.00</text></g><g class="tick" opacity="1" transform="translate(1372.3354325,0)"><line stroke="currentColor" y2="6"/><text fill="currentColor" y="9" dy="7.1">114.10</text></g></g><g id="lz-plot-14.genes.y1_axis" class="lz-y lz-y1 lz-axis"/><g id="lz-plot-14.genes.y2_axis" class="lz-y lz-y2 lz-axis"/><g class="lz-data_layer-container" id="lz-plot-14.genes.genes.data_layer_container" transform="translate(50, 20)"><clipPath id="lz-plot-14.genes.genes.clip"><rect width="1389" height="110"/></clipPath><g id="lz-plot-14.genes.genes.data_layer" clip-path="url(#lz-plot-14.genes.genes.clip)"><g class="lz-data_layer-genes" id="lz-plot-14_genes_genes-ENSG0000011679316"><rect class="lz-data_layer-genes lz-data_layer-genes-statusnode" id="lz-plot-14_genes_genes-ENSG0000011679316-statusnode" rx="3" ry="3" width="195.41098499999998" height="31" x="-3" y="0"/><rect class="lz-data_layer-genes lz-boundary" width="217.579905" height="1" x="-28.16892" y="23" style="stroke: rgb(54, 54, 150);"/><text class="lz-data_layer-genes lz-label" text-anchor="middle" x="94.70549249999999" y="15" style="font-size: 12px;">PHTF1</text><rect class="lz-data_layer-genes lz-exon" width="3.104415000000003" height="10" x="-28.16892" y="18" style="stroke: rgb(54, 54, 150);"/><rect class="lz-data_layer-genes lz-exon" width="0.4340624999999996" height="10" x="-23.199772499999998" y="18" style="stroke: rgb(54, 54, 150);"/><rect class="lz-data_layer-genes lz-exon" width="0.32988750000000167" height="10" x="-18.1924275" y="18" style="stroke: rgb(54, 54, 150);"/><rect class="lz-data_layer-genes lz-exon" width="0.5382374999999993" height="10" x="-14.4074025" y="18" style="stroke: rgb(54, 54, 150);"/><rect class="lz-data_layer-genes lz-exon" width="0.29863499999999954" height="10" x="-2.993295" y="18" style="stroke: rgb(54, 54, 150);"/><rect class="lz-data_layer-genes lz-exon" width="0.45489749999999995" height="10" x="-0.9618825" y="18" style="stroke: rgb(54, 54, 150);"/><rect class="lz-data_layer-genes lz-exon" width="0.9445199999999998" height="10" x="3.2884575" y="18" style="stroke: rgb(54, 54, 150);"/><rect class="lz-data_layer-genes lz-exon" width="0.44447999999999954" height="10" x="5.7330975" y="18" style="stroke: rgb(54, 54, 150);"/><rect class="lz-data_layer-genes lz-exon" width="0.7674224999999986" height="10" x="18.4424475" y="18" style="stroke: rgb(54, 54, 150);"/><rect class="lz-data_layer-genes lz-exon" width="0.30905249999999995" height="10" x="23.6234175" y="18" style="stroke: rgb(54, 54, 150);"/><rect class="lz-data_layer-genes lz-exon" width="0.6007424999999991" height="10" x="24.297082500000002" y="18" style="stroke: rgb(54, 54, 150);"/><rect class="lz-data_layer-genes lz-exon" width="0.5521274999999974" height="10" x="28.94676" y="18" style="stroke: rgb(54, 54, 150);"/><rect class="lz-data_layer-genes lz-exon" width="0.4653150000000039" height="10" x="68.81106" y="18" style="stroke: rgb(54, 54, 150);"/><rect class="lz-data_layer-genes lz-exon" width="0.5417099999999948" height="10" x="74.5719375" y="18" style="stroke: rgb(54, 54, 150);"/><rect class="lz-data_layer-genes lz-exon" width="0.5486549999999966" height="10" x="115.1724075" y="18" style="stroke: rgb(54, 54, 150);"/><rect class="lz-data_layer-genes lz-exon" width="0.23960250000001793" height="10" x="117.3253575" y="18" style="stroke: rgb(54, 54, 150);"/><rect class="lz-data_layer-genes lz-exon" width="0.19446000000002073" height="10" x="183.19521" y="18" style="stroke: rgb(54, 54, 150);"/><rect class="lz-data_layer-genes lz-exon" width="0.2569650000000365" height="10" x="186.52881" y="18" style="stroke: rgb(54, 54, 150);"/><rect class="lz-data_layer-genes lz-exon" width="1.6077675000000227" height="10" x="187.79279999999997" y="18" style="stroke: rgb(54, 54, 150);"/><rect class="lz-data_layer-genes lz-clickarea" id="lz-plot-14_genes_genes-ENSG0000011679316_clickarea" rx="3" ry="3" width="195.41098499999998" height="31" x="-3" y="0"/></g><g class="lz-data_layer-genes" id="lz-plot-14_genes_genes-ENSG0000008101913"><rect class="lz-data_layer-genes lz-data_layer-genes-statusnode" id="lz-plot-14_genes_genes-ENSG0000008101913-statusnode" rx="3" ry="3" width="181.86128999999994" height="31" x="194.5470525" y="0"/><rect class="lz-data_layer-genes lz-boundary" width="175.86128999999994" height="1" x="197.5470525" y="23" style="stroke: rgb(54, 54, 150);"/><text class="lz-data_layer-genes lz-label" text-anchor="middle" x="285.4776975" y="15" style="font-size: 12px;">RSBN1</text><rect class="lz-data_layer-genes lz-exon" width="16.046422499999977" height="10" x="197.5470525" y="18" style="stroke: rgb(54, 54, 150);"/><rect class="lz-data_layer-genes lz-exon" width="0.3750299999999811" height="10" x="215.83671" y="18" style="stroke: rgb(54, 54, 150);"/><rect class="lz-data_layer-genes lz-exon" width="0.5799075000000187" height="10" x="219.7363275" y="18" style="stroke: rgb(54, 54, 150);"/><rect class="lz-data_layer-genes lz-exon" width="0.49309500000001094" height="10" x="250.9471575" y="18" style="stroke: rgb(54, 54, 150);"/><rect class="lz-data_layer-genes lz-exon" width="0.47573249999999234" height="10" x="252.54798000000002" y="18" style="stroke: rgb(54, 54, 150);"/><rect class="lz-data_layer-genes lz-exon" width="2.336992500000008" height="10" x="320.92845" y="18" style="stroke: rgb(54, 54, 150);"/><rect class="lz-data_layer-genes lz-exon" width="2.6599349999999617" height="10" x="370.7484075" y="18" style="stroke: rgb(54, 54, 150);"/><rect class="lz-data_layer-genes lz-clickarea" id="lz-plot-14_genes_genes-ENSG0000008101913_clickarea" rx="3" ry="3" width="181.86128999999994" height="31" x="194.5470525" y="0"/></g><g class="lz-data_layer-genes" id="lz-plot-14_genes_genes-ENSG0000013424216"><rect class="lz-data_layer-genes lz-data_layer-genes-statusnode" id="lz-plot-14_genes_genes-ENSG0000013424216-statusnode" rx="3" ry="3" width="207.2035949999999" height="31" x="375.04413000000005" y="36"/><rect class="lz-data_layer-genes lz-boundary" width="201.2035949999999" height="1" x="378.04413000000005" y="59" style="stroke: rgb(54, 54, 150);"/><text class="lz-data_layer-genes lz-label" text-anchor="middle" x="478.64592749999997" y="51" style="font-size: 12px;">PTPN22</text><rect class="lz-data_layer-genes lz-exon" width="4.021154999999965" height="10" x="378.04413000000005" y="54" style="stroke: rgb(54, 54, 150);"/><rect class="lz-data_layer-genes lz-exon" width="0.26738250000005337" height="10" x="398.06656499999997" y="54" style="stroke: rgb(54, 54, 150);"/><rect class="lz-data_layer-genes lz-exon" width="0.10417500000005475" height="10" x="417.39102749999995" y="54" style="stroke: rgb(54, 54, 150);"/><rect class="lz-data_layer-genes lz-exon" width="0.39933750000000146" height="10" x="432.8436525" y="54" style="stroke: rgb(54, 54, 150);"/><rect class="lz-data_layer-genes lz-exon" width="0.2778000000000702" height="10" x="434.083335" y="54" style="stroke: rgb(54, 54, 150);"/><rect class="lz-data_layer-genes lz-exon" width="0.09375749999998106" height="10" x="445.06338" y="54" style="stroke: rgb(54, 54, 150);"/><rect class="lz-data_layer-genes lz-exon" width="0.45142500000002883" height="10" x="449.223435" y="54" style="stroke: rgb(54, 54, 150);"/><rect class="lz-data_layer-genes lz-exon" width="0.2882174999999165" height="10" x="451.31040750000005" y="54" style="stroke: rgb(54, 54, 150);"/><rect class="lz-data_layer-genes lz-exon" width="2.8370325000000207" height="10" x="460.6167075" y="54" style="stroke: rgb(54, 54, 150);"/><rect class="lz-data_layer-genes lz-exon" width="0.26391000000000986" height="10" x="463.9294725" y="54" style="stroke: rgb(54, 54, 150);"/><rect class="lz-data_layer-genes lz-exon" width="0.29863500000004706" height="10" x="498.6405825" y="54" style="stroke: rgb(54, 54, 150);"/><rect class="lz-data_layer-genes lz-exon" width="0.26738250000005337" height="10" x="510.74919" y="54" style="stroke: rgb(54, 54, 150);"/><rect class="lz-data_layer-genes lz-exon" width="0.2291850000001432" height="10" x="519.2359799999999" y="54" style="stroke: rgb(54, 54, 150);"/><rect class="lz-data_layer-genes lz-exon" width="0.49309500000003936" height="10" x="520.74999" y="54" style="stroke: rgb(54, 54, 150);"/><rect class="lz-data_layer-genes lz-exon" width="0.204877500000066" height="10" x="525.8719275" y="54" style="stroke: rgb(54, 54, 150);"/><rect class="lz-data_layer-genes lz-exon" width="0.24654750000013337" height="10" x="526.4483624999999" y="54" style="stroke: rgb(54, 54, 150);"/><rect class="lz-data_layer-genes lz-exon" width="0.13195500000006177" height="10" x="530.5806375" y="54" style="stroke: rgb(54, 54, 150);"/><rect class="lz-data_layer-genes lz-exon" width="0.32988750000004075" height="10" x="533.1502875" y="54" style="stroke: rgb(54, 54, 150);"/><rect class="lz-data_layer-genes lz-exon" width="0.26391000000000986" height="10" x="534.9698774999999" y="54" style="stroke: rgb(54, 54, 150);"/><rect class="lz-data_layer-genes lz-exon" width="0.37503000000003794" height="10" x="536.1852524999999" y="54" style="stroke: rgb(54, 54, 150);"/><rect class="lz-data_layer-genes lz-exon" width="0.6076874999999973" height="10" x="578.497665" y="54" style="stroke: rgb(54, 54, 150);"/><rect class="lz-data_layer-genes lz-clickarea" id="lz-plot-14_genes_genes-ENSG0000013424216_clickarea" rx="3" ry="3" width="207.2035949999999" height="31" x="375.04413000000005" y="36"/></g><g class="lz-data_layer-genes" id="lz-plot-14_genes_genes-ENSG0000018876113"><rect class="lz-data_layer-genes lz-data_layer-genes-statusnode" id="lz-plot-14_genes_genes-ENSG0000018876113-statusnode" rx="3" ry="3" width="92.79999923706055" height="31" x="569.1197241314696" y="0"/><rect class="lz-data_layer-genes lz-boundary" width="37.381462499999884" height="1" x="596.8289925" y="23" style="stroke: rgb(54, 54, 150);"/><text class="lz-data_layer-genes lz-label" text-anchor="middle" x="615.5197237499999" y="15" style="font-size: 12px;">BCL2L15</text><rect class="lz-data_layer-genes lz-exon" width="15.015089999999987" height="10" x="596.8289925" y="18" style="stroke: rgb(54, 54, 150);"/><rect class="lz-data_layer-genes lz-exon" width="0.7778399999999692" height="10" x="614.042175" y="18" style="stroke: rgb(54, 54, 150);"/><rect class="lz-data_layer-genes lz-exon" width="0.42017249999992146" height="10" x="630.5851650000001" y="18" style="stroke: rgb(54, 54, 150);"/><rect class="lz-data_layer-genes lz-exon" width="1.1528699999998935" height="10" x="633.057585" y="18" style="stroke: rgb(54, 54, 150);"/><rect class="lz-data_layer-genes lz-clickarea" id="lz-plot-14_genes_genes-ENSG0000018876113_clickarea" rx="3" ry="3" width="92.79999923706055" height="31" x="569.1197241314696" y="0"/></g><g class="lz-data_layer-genes" id="lz-plot-14_genes_genes-ENSG0000013426213"><rect class="lz-data_layer-genes lz-data_layer-genes-statusnode" id="lz-plot-14_genes_genes-ENSG0000013426213-statusnode" rx="3" ry="3" width="80" height="31" x="636.28500125" y="36"/><rect class="lz-data_layer-genes lz-boundary" width="38.221807499999954" height="1" x="657.1740975" y="59" style="stroke: rgb(54, 54, 150);"/><text class="lz-data_layer-genes lz-label" text-anchor="middle" x="676.28500125" y="51" style="font-size: 12px;">AP4B1</text><rect class="lz-data_layer-genes lz-exon" width="4.507304999999974" height="10" x="657.1740975" y="54" style="stroke: rgb(54, 54, 150);"/><rect class="lz-data_layer-genes lz-exon" width="0.9757724999999482" height="10" x="662.601615" y="54" style="stroke: rgb(54, 54, 150);"/><rect class="lz-data_layer-genes lz-exon" width="0.7188074999999117" height="10" x="664.3413375" y="54" style="stroke: rgb(54, 54, 150);"/><rect class="lz-data_layer-genes lz-exon" width="0.3576674999999341" height="10" x="669.8348325000001" y="54" style="stroke: rgb(54, 54, 150);"/><rect class="lz-data_layer-genes lz-exon" width="0.28821749999997337" height="10" x="672.8836875000001" y="54" style="stroke: rgb(54, 54, 150);"/><rect class="lz-data_layer-genes lz-exon" width="1.7223599999998669" height="10" x="677.0020725" y="54" style="stroke: rgb(54, 54, 150);"/><rect class="lz-data_layer-genes lz-exon" width="0.5104574999999159" height="10" x="681.6274425" y="54" style="stroke: rgb(54, 54, 150);"/><rect class="lz-data_layer-genes lz-exon" width="0.451424999999972" height="10" x="683.42967" y="54" style="stroke: rgb(54, 54, 150);"/><rect class="lz-data_layer-genes lz-exon" width="0.7778399999999692" height="10" x="686.4958875" y="54" style="stroke: rgb(54, 54, 150);"/><rect class="lz-data_layer-genes lz-exon" width="0.6736649999999145" height="10" x="693.3262950000001" y="54" style="stroke: rgb(54, 54, 150);"/><rect class="lz-data_layer-genes lz-clickarea" id="lz-plot-14_genes_genes-ENSG0000013426213_clickarea" rx="3" ry="3" width="80" height="31" x="636.28500125" y="36"/></g><g class="lz-data_layer-genes" id="lz-plot-14_genes_genes-ENSG000001186557"><rect class="lz-data_layer-genes lz-data_layer-genes-statusnode" id="lz-plot-14_genes_genes-ENSG000001186557-statusnode" rx="3" ry="3" width="98" height="31" x="661.8433212499999" y="72"/><rect class="lz-data_layer-genes lz-boundary" width="30.811492499999986" height="1" x="695.4375749999999" y="95" style="stroke: rgb(54, 54, 150);"/><text class="lz-data_layer-genes lz-label" text-anchor="middle" x="710.8433212499999" y="87" style="font-size: 12px;">DCLRE1B</text><rect class="lz-data_layer-genes lz-exon" width="1.95154500000001" height="10" x="695.4375749999999" y="90" style="stroke: rgb(54, 54, 150);"/><rect class="lz-data_layer-genes lz-exon" width="0.5729625000000169" height="10" x="701.6290425" y="90" style="stroke: rgb(54, 54, 150);"/><rect class="lz-data_layer-genes lz-exon" width="4.3406250000000455" height="10" x="715.98783" y="90" style="stroke: rgb(54, 54, 150);"/><rect class="lz-data_layer-genes lz-clickarea" id="lz-plot-14_genes_genes-ENSG000001186557_clickarea" rx="3" ry="3" width="98" height="31" x="661.8433212499999" y="72"/></g><g class="lz-data_layer-genes" id="lz-plot-14_genes_genes-ENSG0000016334922"><rect class="lz-data_layer-genes lz-data_layer-genes-statusnode" id="lz-plot-14_genes_genes-ENSG0000016334922-statusnode" rx="3" ry="3" width="174.57251250000013" height="31" x="776.1630224999999" y="0"/><rect class="lz-data_layer-genes lz-boundary" width="168.57251250000013" height="1" x="779.1630224999999" y="23" style="stroke: rgb(54, 54, 150);"/><text class="lz-data_layer-genes lz-label" text-anchor="middle" x="863.44927875" y="15" style="font-size: 12px;">HIPK1</text><rect class="lz-data_layer-genes lz-exon" width="0.7222800000001826" height="10" x="779.1630224999999" y="18" style="stroke: rgb(54, 54, 150);"/><rect class="lz-data_layer-genes lz-exon" width="3.739882499999908" height="10" x="817.5619275" y="18" style="stroke: rgb(54, 54, 150);"/><rect class="lz-data_layer-genes lz-exon" width="0.4271175000000085" height="10" x="860.5653675" y="18" style="stroke: rgb(54, 54, 150);"/><rect class="lz-data_layer-genes lz-exon" width="0.4132275000000618" height="10" x="867.11103" y="18" style="stroke: rgb(54, 54, 150);"/><rect class="lz-data_layer-genes lz-exon" width="0.2986349999999902" height="10" x="870.27795" y="18" style="stroke: rgb(54, 54, 150);"/><rect class="lz-data_layer-genes lz-exon" width="0.6389399999998204" height="10" x="873.9726900000001" y="18" style="stroke: rgb(54, 54, 150);"/><rect class="lz-data_layer-genes lz-exon" width="0.5625450000000001" height="10" x="875.6985225" y="18" style="stroke: rgb(54, 54, 150);"/><rect class="lz-data_layer-genes lz-exon" width="0.7813125000001264" height="10" x="878.9696174999999" y="18" style="stroke: rgb(54, 54, 150);"/><rect class="lz-data_layer-genes lz-exon" width="0.42017249999992146" height="10" x="893.731215" y="18" style="stroke: rgb(54, 54, 150);"/><rect class="lz-data_layer-genes lz-exon" width="0.46531500000014603" height="10" x="897.44679" y="18" style="stroke: rgb(54, 54, 150);"/><rect class="lz-data_layer-genes lz-exon" width="0.49309500000003936" height="10" x="906.9718575" y="18" style="stroke: rgb(54, 54, 150);"/><rect class="lz-data_layer-genes lz-exon" width="0.6319950000000745" height="10" x="912.6528675" y="18" style="stroke: rgb(54, 54, 150);"/><rect class="lz-data_layer-genes lz-exon" width="0.7153349999998682" height="10" x="915.0002775" y="18" style="stroke: rgb(54, 54, 150);"/><rect class="lz-data_layer-genes lz-exon" width="0.8368725000000268" height="10" x="920.2576425" y="18" style="stroke: rgb(54, 54, 150);"/><rect class="lz-data_layer-genes lz-exon" width="0.451424999999972" height="10" x="926.7442725000001" y="18" style="stroke: rgb(54, 54, 150);"/><rect class="lz-data_layer-genes lz-exon" width="16.82426250000003" height="10" x="930.9112725" y="18" style="stroke: rgb(54, 54, 150);"/><rect class="lz-data_layer-genes lz-clickarea" id="lz-plot-14_genes_genes-ENSG0000016334922_clickarea" rx="3" ry="3" width="174.57251250000013" height="31" x="776.1630224999999" y="0"/></g><g class="lz-data_layer-genes" id="lz-plot-14_genes_genes-ENSG0000011677412"><rect class="lz-data_layer-genes lz-data_layer-genes-statusnode" id="lz-plot-14_genes_genes-ENSG0000011677412-statusnode" rx="3" ry="3" width="201.08852250000007" height="31" x="950.02068" y="36"/><rect class="lz-data_layer-genes lz-boundary" width="195.08852250000007" height="1" x="953.02068" y="59" style="stroke: rgb(54, 54, 150);"/><text class="lz-data_layer-genes lz-label" text-anchor="middle" x="1050.56494125" y="51" style="font-size: 12px;">OLFML3</text><rect class="lz-data_layer-genes lz-exon" width="0.8299275000000534" height="10" x="953.02068" y="54" style="stroke: rgb(54, 54, 150);"/><rect class="lz-data_layer-genes lz-exon" width="1.4376150000000507" height="10" x="955.8403500000001" y="54" style="stroke: rgb(54, 54, 150);"/><rect class="lz-data_layer-genes lz-exon" width="4.531612499999824" height="10" x="958.4308350000001" y="54" style="stroke: rgb(54, 54, 150);"/><rect class="lz-data_layer-genes lz-clickarea" id="lz-plot-14_genes_genes-ENSG0000011677412_clickarea" rx="3" ry="3" width="201.08852250000007" height="31" x="950.02068" y="36"/></g><g class="lz-data_layer-genes" id="lz-plot-14_genes_genes-ENSG0000013420717"><rect class="lz-data_layer-genes lz-data_layer-genes-statusnode" id="lz-plot-14_genes_genes-ENSG0000013420717-statusnode" rx="3" ry="3" width="60.35157000000004" height="31" x="1331.64843" y="0"/><rect class="lz-data_layer-genes lz-boundary" width="224.28530250000017" height="1" x="1334.64843" y="23" style="stroke: rgb(54, 54, 150);"/><text class="lz-data_layer-genes lz-label" text-anchor="middle" x="1361.824215" y="15" style="font-size: 12px;">SYT6</text><rect class="lz-data_layer-genes lz-exon" width="9.69174750000002" height="10" x="1334.64843" y="18" style="stroke: rgb(54, 54, 150);"/><rect class="lz-data_layer-genes lz-exon" width="0.5208749999999327" height="10" x="1363.94244" y="18" style="stroke: rgb(54, 54, 150);"/><rect class="lz-data_layer-genes lz-exon" width="0.5937975000001643" height="10" x="1368.6893475" y="18" style="stroke: rgb(54, 54, 150);"/><rect class="lz-data_layer-genes lz-exon" width="0.41669999999999163" height="10" x="1384.339905" y="18" style="stroke: rgb(54, 54, 150);"/><rect class="lz-data_layer-genes lz-exon" width="1.9376549999999497" height="10" x="1502.03682" y="18" style="stroke: rgb(54, 54, 150);"/><rect class="lz-data_layer-genes lz-exon" width="0.9202124999999342" height="10" x="1509.3985200000002" y="18" style="stroke: rgb(54, 54, 150);"/><rect class="lz-data_layer-genes lz-exon" width="0.8959050000000843" height="10" x="1557.9961575" y="18" style="stroke: rgb(54, 54, 150);"/><rect class="lz-data_layer-genes lz-clickarea" id="lz-plot-14_genes_genes-ENSG0000013420717_clickarea" rx="3" ry="3" width="60.35157000000004" height="31" x="1331.64843" y="0"/></g></g></g><g class="lz-data_layer-container" id="lz-plot-14.genes.variant.data_layer_container" transform="translate(50, 20)"><clipPath id="lz-plot-14.genes.variant.clip"><rect width="1389" height="110"/></clipPath><g id="lz-plot-14.genes.variant.data_layer" clip-path="url(#lz-plot-14.genes.variant.clip)"><path class="lz-data_layer-line" d="M694.5,110L694.5,0" style="stroke: rgb(255, 51, 51); stroke-width: 2px; stroke-dasharray: 4px, 4px;"/></g></g></g></g></svg>