<?xml version="1.0" standalone="no"?>
<svg viewBox="0 0 1677 449" width="1677" height="449" font-family="Arial, Helvetica, sans-serif" xmlns="http://www.w3.org/2000/svg" style="display: block;"><g><text x="4" y="19" font-size="12px">Ruler</text><text x="15" y="38" font-size="12px">chr15</text><line id="line0" x1="0" y1="50" x2="1677" y2="50" stroke="lightgray"/><text x="4" y="64" font-size="12px">GENCODE V19 genes</text><line id="line1" x1="0" y1="71" x2="1677" y2="71" stroke="lightgray"/><text x="4" y="85" font-size="12px">Snps from Ensembl</text><line id="line2" x1="0" y1="100" x2="1677" y2="100" stroke="lightgray"/><text x="4" y="114" font-size="12px">E062 Primary mononuclear cells from peripheral blood AuxiliaryHMM</text><line id="line3" x1="0" y1="147" x2="1677" y2="147" stroke="lightgray"/><text x="4" y="161" font-size="12px">E062 Primary mononuclear cells from peripheral blood PrimaryHMM</text><line id="line4" x1="0" y1="194" x2="1677" y2="194" stroke="lightgray"/><text x="4" y="208" font-size="12px">E029 Primary monocytes from peripheral blood ImputedHMM</text><line id="line5" x1="0" y1="241" x2="1677" y2="241" stroke="lightgray"/><text x="4" y="255" font-size="12px">E029 Primary monocytes from peripheral blood AuxiliaryHMM</text><line id="line6" x1="0" y1="288" x2="1677" y2="288" stroke="lightgray"/><text x="4" y="302" font-size="12px">E029 Primary monocytes from peripheral blood PrimaryHMM</text><line id="line7" x1="0" y1="335" x2="1677" y2="335" stroke="lightgray"/><text x="4" y="349" font-size="12px">E062 Primary mononuclear cells from peripheral blood ImputedHMM</text><line id="line8" x1="0" y1="382" x2="1677" y2="382" stroke="lightgray"/></g><g><g transform="translate(0)"><svg width="1556.65625" height="40" style="display: block;" id="svg00" x="121" y="5"><g><rect x="0" y="5" width="1556.65625" height="15" opacity="0.5" style="stroke: rgb(0, 0, 0); fill: rgb(255, 255, 255);"/><rect x="0" y="5" width="1556.65625" height="15" fill="rgb(120,120,120)"/><text x="778.328125" y="15.5" style="text-anchor: middle; fill: rgb(255, 255, 255); font-size: 10px;">q25.1</text><rect x="0" y="5" width="311.33125" height="15" style="fill: rgb(137, 199, 56);"/><rect x="311.33125" y="5" width="311.33125" height="15" style="fill: rgb(224, 81, 68);"/><rect x="622.6625" y="5" width="311.33125" height="15" style="fill: rgb(146, 56, 199);"/><rect x="933.9937500000001" y="5" width="311.33125" height="15" style="fill: rgb(56, 153, 199);"/><rect x="1245.325" y="5" width="311.33125" height="15" style="fill: rgb(137, 199, 56);"/><text x="155.665625" y="13.5" dominant-baseline="middle" style="text-anchor: middle; fill: white; font-size: 12px;">A</text><text x="466.99687500000005" y="13.5" dominant-baseline="middle" style="text-anchor: middle; fill: white; font-size: 12px;">C</text><text x="778.328125" y="13.5" dominant-baseline="middle" style="text-anchor: middle; fill: white; font-size: 12px;">T</text><text x="1089.6593750000002" y="13.5" dominant-baseline="middle" style="text-anchor: middle; fill: white; font-size: 12px;">G</text><text x="1400.9906250000001" y="13.5" dominant-baseline="middle" style="text-anchor: middle; fill: white; font-size: 12px;">A</text></g><g transform="translate(0 20)"><line x1="0" y1="0" x2="1556.65625" y2="0" stroke="#bbb" stroke-width="1"/><line x1="0" y1="-10" x2="0" y2="0" stroke="#bbb" stroke-width="2"/><text x="0" y="14" style="text-anchor: middle; font-size: 12px;">79231475</text><line x1="311.33125" y1="-10" x2="311.33125" y2="0" stroke="#bbb" stroke-width="2"/><text x="311.33125" y="14" style="text-anchor: middle; font-size: 12px;">79231476</text><line x1="622.6625" y1="-10" x2="622.6625" y2="0" stroke="#bbb" stroke-width="2"/><text x="622.6625" y="14" style="text-anchor: middle; font-size: 12px;">79231477</text><line x1="933.9937500000001" y1="-10" x2="933.9937500000001" y2="0" stroke="#bbb" stroke-width="2"/><text x="933.9937500000001" y="14" style="text-anchor: middle; font-size: 12px;">79231478</text><line x1="1245.325" y1="-10" x2="1245.325" y2="0" stroke="#bbb" stroke-width="2"/><text x="1245.325" y="14" style="text-anchor: middle; font-size: 12px;">79231479</text></g></svg></g><g transform="translate(0)"><svg width="1556" height="16" style="display: block; overflow: visible;" id="svg10" x="121" y="50"/></g><g transform="translate(0)"><svg width="1556.65625" height="24" style="display: block; overflow: visible;" id="svg20" x="121" y="71"><g transform="translate(0 2)"><rect x="311.33125" y="0" width="311.33125" height="9" fill="blue"/><polyline points="308.83125,1,313.83125,4.5,308.83125,8" fill="none" stroke="white" stroke-width="1" stroke-opacity="1"/><polyline points="320.83125,1,325.83125,4.5,320.83125,8" fill="none" stroke="white" stroke-width="1" stroke-opacity="1"/><polyline points="332.83125,1,337.83125,4.5,332.83125,8" fill="none" stroke="white" stroke-width="1" stroke-opacity="1"/><polyline points="344.83125,1,349.83125,4.5,344.83125,8" fill="none" stroke="white" stroke-width="1" stroke-opacity="1"/><polyline points="356.83125,1,361.83125,4.5,356.83125,8" fill="none" stroke="white" stroke-width="1" stroke-opacity="1"/><polyline points="368.83125,1,373.83125,4.5,368.83125,8" fill="none" stroke="white" stroke-width="1" stroke-opacity="1"/><polyline points="380.83125,1,385.83125,4.5,380.83125,8" fill="none" stroke="white" stroke-width="1" stroke-opacity="1"/><polyline points="392.83125,1,397.83125,4.5,392.83125,8" fill="none" stroke="white" stroke-width="1" stroke-opacity="1"/><polyline points="404.83125,1,409.83125,4.5,404.83125,8" fill="none" stroke="white" stroke-width="1" stroke-opacity="1"/><polyline points="416.83125,1,421.83125,4.5,416.83125,8" fill="none" stroke="white" stroke-width="1" stroke-opacity="1"/><polyline points="428.83125,1,433.83125,4.5,428.83125,8" fill="none" stroke="white" stroke-width="1" stroke-opacity="1"/><polyline points="440.83125,1,445.83125,4.5,440.83125,8" fill="none" stroke="white" stroke-width="1" stroke-opacity="1"/><polyline points="452.83125,1,457.83125,4.5,452.83125,8" fill="none" stroke="white" stroke-width="1" stroke-opacity="1"/><polyline points="464.83125,1,469.83125,4.5,464.83125,8" fill="none" stroke="white" stroke-width="1" stroke-opacity="1"/><polyline points="476.83125,1,481.83125,4.5,476.83125,8" fill="none" stroke="white" stroke-width="1" stroke-opacity="1"/><polyline points="488.83125,1,493.83125,4.5,488.83125,8" fill="none" stroke="white" stroke-width="1" stroke-opacity="1"/><polyline points="500.83125,1,505.83125,4.5,500.83125,8" fill="none" stroke="white" stroke-width="1" stroke-opacity="1"/><polyline points="512.83125,1,517.83125,4.5,512.83125,8" fill="none" stroke="white" stroke-width="1" stroke-opacity="1"/><polyline points="524.83125,1,529.83125,4.5,524.83125,8" fill="none" stroke="white" stroke-width="1" stroke-opacity="1"/><polyline points="536.83125,1,541.83125,4.5,536.83125,8" fill="none" stroke="white" stroke-width="1" stroke-opacity="1"/><polyline points="548.83125,1,553.83125,4.5,548.83125,8" fill="none" stroke="white" stroke-width="1" stroke-opacity="1"/><polyline points="560.83125,1,565.83125,4.5,560.83125,8" fill="none" stroke="white" stroke-width="1" stroke-opacity="1"/><polyline points="572.83125,1,577.83125,4.5,572.83125,8" fill="none" stroke="white" stroke-width="1" stroke-opacity="1"/><polyline points="584.83125,1,589.83125,4.5,584.83125,8" fill="none" stroke="white" stroke-width="1" stroke-opacity="1"/><polyline points="596.83125,1,601.83125,4.5,596.83125,8" fill="none" stroke="white" stroke-width="1" stroke-opacity="1"/><polyline points="608.83125,1,613.83125,4.5,608.83125,8" fill="none" stroke="white" stroke-width="1" stroke-opacity="1"/><rect x="420.99687500000005" y="0" width="92" height="8" fill="blue" opacity="1"/><text x="466.99687500000005" y="0" fill="white" dominant-baseline="hanging" text-anchor="middle" font-size="12">rs750176407</text></g><g transform="translate(0 13)"><rect x="622.6625" y="0" width="311.33125000000007" height="9" fill="blue"/><polyline points="620.1625,1,625.1625,4.5,620.1625,8" fill="none" stroke="white" stroke-width="1" stroke-opacity="1"/><polyline points="632.1625,1,637.1625,4.5,632.1625,8" fill="none" stroke="white" stroke-width="1" stroke-opacity="1"/><polyline points="644.1625,1,649.1625,4.5,644.1625,8" fill="none" stroke="white" stroke-width="1" stroke-opacity="1"/><polyline points="656.1625,1,661.1625,4.5,656.1625,8" fill="none" stroke="white" stroke-width="1" stroke-opacity="1"/><polyline points="668.1625,1,673.1625,4.5,668.1625,8" fill="none" stroke="white" stroke-width="1" stroke-opacity="1"/><polyline points="680.1625,1,685.1625,4.5,680.1625,8" fill="none" stroke="white" stroke-width="1" stroke-opacity="1"/><polyline points="692.1625,1,697.1625,4.5,692.1625,8" fill="none" stroke="white" stroke-width="1" stroke-opacity="1"/><polyline points="704.1625,1,709.1625,4.5,704.1625,8" fill="none" stroke="white" stroke-width="1" stroke-opacity="1"/><polyline points="716.1625,1,721.1625,4.5,716.1625,8" fill="none" stroke="white" stroke-width="1" stroke-opacity="1"/><polyline points="728.1625,1,733.1625,4.5,728.1625,8" fill="none" stroke="white" stroke-width="1" stroke-opacity="1"/><polyline points="740.1625,1,745.1625,4.5,740.1625,8" fill="none" stroke="white" stroke-width="1" stroke-opacity="1"/><polyline points="752.1625,1,757.1625,4.5,752.1625,8" fill="none" stroke="white" stroke-width="1" stroke-opacity="1"/><polyline points="764.1625,1,769.1625,4.5,764.1625,8" fill="none" stroke="white" stroke-width="1" stroke-opacity="1"/><polyline points="776.1625,1,781.1625,4.5,776.1625,8" fill="none" stroke="white" stroke-width="1" stroke-opacity="1"/><polyline points="788.1625,1,793.1625,4.5,788.1625,8" fill="none" stroke="white" stroke-width="1" stroke-opacity="1"/><polyline points="800.1625,1,805.1625,4.5,800.1625,8" fill="none" stroke="white" stroke-width="1" stroke-opacity="1"/><polyline points="812.1625,1,817.1625,4.5,812.1625,8" fill="none" stroke="white" stroke-width="1" stroke-opacity="1"/><polyline points="824.1625,1,829.1625,4.5,824.1625,8" fill="none" stroke="white" stroke-width="1" stroke-opacity="1"/><polyline points="836.1625,1,841.1625,4.5,836.1625,8" fill="none" stroke="white" stroke-width="1" stroke-opacity="1"/><polyline points="848.1625,1,853.1625,4.5,848.1625,8" fill="none" stroke="white" stroke-width="1" stroke-opacity="1"/><polyline points="860.1625,1,865.1625,4.5,860.1625,8" fill="none" stroke="white" stroke-width="1" stroke-opacity="1"/><polyline points="872.1625,1,877.1625,4.5,872.1625,8" fill="none" stroke="white" stroke-width="1" stroke-opacity="1"/><polyline points="884.1625,1,889.1625,4.5,884.1625,8" fill="none" stroke="white" stroke-width="1" stroke-opacity="1"/><polyline points="896.1625,1,901.1625,4.5,896.1625,8" fill="none" stroke="white" stroke-width="1" stroke-opacity="1"/><polyline points="908.1625,1,913.1625,4.5,908.1625,8" fill="none" stroke="white" stroke-width="1" stroke-opacity="1"/><polyline points="920.1625,1,925.1625,4.5,920.1625,8" fill="none" stroke="white" stroke-width="1" stroke-opacity="1"/><rect x="736.328125" y="0" width="84" height="8" fill="blue" opacity="1"/><text x="778.328125" y="0" fill="white" dominant-baseline="hanging" text-anchor="middle" font-size="12">rs12148472</text></g><g transform="translate(0 2)"><rect x="933.9937500000001" y="0" width="311.33124999999995" height="9" fill="blue"/><polyline points="931.4937500000001,1,936.4937500000001,4.5,931.4937500000001,8" fill="none" stroke="white" stroke-width="1" stroke-opacity="1"/><polyline points="943.4937500000001,1,948.4937500000001,4.5,943.4937500000001,8" fill="none" stroke="white" stroke-width="1" stroke-opacity="1"/><polyline points="955.4937500000001,1,960.4937500000001,4.5,955.4937500000001,8" fill="none" stroke="white" stroke-width="1" stroke-opacity="1"/><polyline points="967.4937500000001,1,972.4937500000001,4.5,967.4937500000001,8" fill="none" stroke="white" stroke-width="1" stroke-opacity="1"/><polyline points="979.4937500000001,1,984.4937500000001,4.5,979.4937500000001,8" fill="none" stroke="white" stroke-width="1" stroke-opacity="1"/><polyline points="991.4937500000001,1,996.4937500000001,4.5,991.4937500000001,8" fill="none" stroke="white" stroke-width="1" stroke-opacity="1"/><polyline points="1003.4937500000001,1,1008.4937500000001,4.5,1003.4937500000001,8" fill="none" stroke="white" stroke-width="1" stroke-opacity="1"/><polyline points="1015.4937500000001,1,1020.4937500000001,4.5,1015.4937500000001,8" fill="none" stroke="white" stroke-width="1" stroke-opacity="1"/><polyline points="1027.49375,1,1032.49375,4.5,1027.49375,8" fill="none" stroke="white" stroke-width="1" stroke-opacity="1"/><polyline points="1039.49375,1,1044.49375,4.5,1039.49375,8" fill="none" stroke="white" stroke-width="1" stroke-opacity="1"/><polyline points="1051.49375,1,1056.49375,4.5,1051.49375,8" fill="none" stroke="white" stroke-width="1" stroke-opacity="1"/><polyline points="1063.49375,1,1068.49375,4.5,1063.49375,8" fill="none" stroke="white" stroke-width="1" stroke-opacity="1"/><polyline points="1075.49375,1,1080.49375,4.5,1075.49375,8" fill="none" stroke="white" stroke-width="1" stroke-opacity="1"/><polyline points="1087.49375,1,1092.49375,4.5,1087.49375,8" fill="none" stroke="white" stroke-width="1" stroke-opacity="1"/><polyline points="1099.49375,1,1104.49375,4.5,1099.49375,8" fill="none" stroke="white" stroke-width="1" stroke-opacity="1"/><polyline points="1111.49375,1,1116.49375,4.5,1111.49375,8" fill="none" stroke="white" stroke-width="1" stroke-opacity="1"/><polyline points="1123.49375,1,1128.49375,4.5,1123.49375,8" fill="none" stroke="white" stroke-width="1" stroke-opacity="1"/><polyline points="1135.49375,1,1140.49375,4.5,1135.49375,8" fill="none" stroke="white" stroke-width="1" stroke-opacity="1"/><polyline points="1147.49375,1,1152.49375,4.5,1147.49375,8" fill="none" stroke="white" stroke-width="1" stroke-opacity="1"/><polyline points="1159.49375,1,1164.49375,4.5,1159.49375,8" fill="none" stroke="white" stroke-width="1" stroke-opacity="1"/><polyline points="1171.49375,1,1176.49375,4.5,1171.49375,8" fill="none" stroke="white" stroke-width="1" stroke-opacity="1"/><polyline points="1183.49375,1,1188.49375,4.5,1183.49375,8" fill="none" stroke="white" stroke-width="1" stroke-opacity="1"/><polyline points="1195.49375,1,1200.49375,4.5,1195.49375,8" fill="none" stroke="white" stroke-width="1" stroke-opacity="1"/><polyline points="1207.49375,1,1212.49375,4.5,1207.49375,8" fill="none" stroke="white" stroke-width="1" stroke-opacity="1"/><polyline points="1219.49375,1,1224.49375,4.5,1219.49375,8" fill="none" stroke="white" stroke-width="1" stroke-opacity="1"/><polyline points="1231.49375,1,1236.49375,4.5,1231.49375,8" fill="none" stroke="white" stroke-width="1" stroke-opacity="1"/><rect x="1043.6593750000002" y="0" width="92" height="8" fill="blue" opacity="1"/><text x="1089.6593750000002" y="0" fill="white" dominant-baseline="hanging" text-anchor="middle" font-size="12">rs371477568</text></g></svg></g><g transform="translate(0)"><svg width="1556" height="42" style="display: block; overflow: visible;" id="svg30" x="121" y="100"/></g><g transform="translate(0)"><svg width="1556" height="42" style="display: block; overflow: visible;" id="svg40" x="121" y="147"/></g><g transform="translate(0)"><svg width="1556" height="42" style="display: block; overflow: visible;" id="svg50" x="121" y="194"/></g><g transform="translate(0)"><svg width="1556" height="42" style="display: block; overflow: visible;" id="svg60" x="121" y="241"/></g><g transform="translate(0)"><svg width="1556" height="42" style="display: block; overflow: visible;" id="svg70" x="121" y="288"/></g><g transform="translate(0)"><svg width="1556" height="42" style="display: block; overflow: visible;" id="svg80" x="121" y="335"/></g></g></svg>